<svg width="364" height="254" viewBox="0 0 364 254" fill="none" xmlns="http://www.w3.org/2000/svg">
<path d="M156.17 249.182C229.921 249.182 289.709 243.498 289.709 236.486C289.709 229.475 229.921 223.791 156.17 223.791C82.418 223.791 22.6305 229.475 22.6305 236.486C22.6305 243.498 82.418 249.182 156.17 249.182Z" fill="#91C0DC"/>
<path d="M257.154 212.818C259.157 211.966 260.643 211.256 261.044 210.889C262.652 209.427 276.733 196.661 273.071 208.842C269.409 221.023 261.195 225.726 261.195 225.726C261.195 225.726 252.25 233.947 250.344 238.206C248.437 242.465 242.724 241.292 240.375 238.206C238.026 235.12 230.698 236.297 230.698 236.297L219.552 237.177C219.552 237.177 199.348 239.855 192.569 235.159C185.79 230.463 181.275 230.425 181.275 230.425C181.275 230.425 175.998 232.774 169.99 233.067C167.141 233.262 164.31 233.666 161.52 234.275C161.453 234.571 161.345 234.857 161.199 235.124H161.08C161.015 235.431 160.907 235.727 160.759 236.004C160.759 236.004 152.546 236.287 146.756 235.268C140.966 234.249 128.08 235.856 128.08 235.856C128.08 235.856 122.774 235.86 111.044 236.959C99.3127 238.058 77.5392 236.959 77.5392 236.959C77.5392 236.959 66.5273 235.85 64.4154 233.423C62.3035 230.997 59.9445 230.849 56.2054 227.638C52.4663 224.427 51.9528 215.068 51.9528 215.068C51.9528 215.068 51.0862 207.46 64.0623 204.603C77.0385 201.745 85.9097 207.852 85.9097 207.852C85.9129 207.846 85.9739 207.756 86.0637 207.605H85.945L86.0926 207.55C86.4521 206.946 87.2127 205.503 87.1742 204.153C87.1068 202.375 89.0999 197.876 89.0999 197.876L89.1417 197.856C89.087 197.684 89.087 197.498 89.1417 197.326C89.8574 195.066 92.2196 190.827 92.2196 190.827C92.2196 190.827 93.9239 189.837 93.8693 188.899C93.8148 187.96 97.005 185.209 97.005 185.209C97.005 185.209 98.9821 183.566 98.7093 182.181C98.4365 180.796 100.635 178.546 100.635 178.546L104.807 170.34C104.807 170.34 108.328 162.697 110.748 162.357C113.168 162.016 117.623 154.955 117.623 154.955C117.623 154.955 125.541 148.562 125.596 147.241C125.65 145.92 129.556 143.551 129.556 143.551C129.556 143.551 129.572 143.699 129.624 143.943L130.079 143.58C132.856 141.372 136.97 138.492 140.077 138.045C140.077 138.045 144.291 135.378 147.116 132.613C148.162 131.598 159.132 126.587 168.565 122.971C176.425 119.956 184.641 117.969 193.009 117.06H193.063H193.166L224.979 123.788C228.472 124.527 231.801 125.895 234.807 127.824C235.705 128.4 236.684 129.043 237.711 129.734C237.162 129.374 236.607 129.014 236.126 128.705C235.644 128.397 235.153 128.107 234.656 127.828C243.299 133.375 259.635 145.094 250.479 149.198C238.308 154.659 230.974 134.542 230.974 134.542C230.974 134.542 227.158 131.006 216.021 131.897C204.884 132.787 186.872 129.853 186.872 129.853C186.872 129.853 180.132 136.162 171.466 136.602C171.466 136.602 165.163 138.804 164.283 140.565C163.578 141.972 162.315 144.878 161.832 145.991L161.806 146.052L162.085 145.997L161.709 146.283C161.664 146.386 161.645 146.437 161.645 146.437L163.706 147.029C164.883 147.325 166.093 147.475 167.307 147.475C167.605 147.47 167.903 147.446 168.199 147.405C168.63 144.087 170.25 141.039 172.757 138.828C175.265 136.616 178.489 135.393 181.83 135.384C182.357 135.384 182.885 135.413 183.409 135.471C183.553 135.487 183.698 135.509 183.839 135.532C183.862 135.493 183.862 135.429 183.862 135.416V135.381C183.99 134.825 184.398 134.635 184.885 134.539C185.136 134.49 185.405 134.462 185.672 134.426C185.893 134.4 186.102 134.365 186.314 134.365H186.477C186.737 134.365 186.994 134.349 187.257 134.365C188.606 134.412 189.925 134.775 191.109 135.423C191.548 135.66 191.969 135.937 192.421 136.142C193.49 136.625 194.694 136.686 195.807 137.039C198.038 137.74 199.774 139.572 200.872 141.632C201.97 143.692 202.522 146.003 203.058 148.276C203.216 148.79 203.258 149.334 203.18 149.867C203.127 150.092 203.041 150.309 202.926 150.509C202.891 150.571 202.849 150.632 202.814 150.696C203.25 150.833 203.67 151.015 204.069 151.239C205.279 151.931 206.31 152.899 207.076 154.064C208.414 156.083 208.986 158.525 209.153 160.946C209.256 161.975 209.204 163.014 208.999 164.028V164.073L208.979 164.163C208.954 164.259 208.931 164.356 208.899 164.452L208.841 164.629C208.774 164.825 208.703 165.021 208.626 165.214C208.495 165.555 208.35 165.876 208.212 166.197C208.003 166.669 207.843 167.161 207.737 167.666C207.429 169.344 208.097 171.035 208.639 172.642C209.161 174.174 209.577 175.741 209.884 177.331C210.199 178.99 210.375 180.754 209.994 182.361C209.994 182.353 209.994 182.344 209.994 182.335C209.981 182.4 209.961 182.464 209.945 182.528L209.926 182.605L209.907 182.679C209.881 182.786 209.852 182.878 209.823 182.97L209.814 183.001C209.801 183.039 209.804 183.036 209.779 183.12C209.753 183.203 209.718 183.287 209.685 183.374C209.611 183.559 209.528 183.74 209.435 183.917L209.393 184C209.358 184.071 209.316 184.145 209.281 184.212C209.27 184.232 209.257 184.25 209.243 184.267L209.162 184.409C209.108 184.502 209.063 184.569 208.992 184.688C208.922 184.807 208.848 184.926 208.771 185.042L208.742 185.083C208.514 185.434 208.273 185.781 208.039 186.125C207.952 186.25 207.869 186.379 207.785 186.504C207.66 186.697 207.541 186.893 207.426 187.089C207.381 187.163 207.336 187.24 207.298 187.314C207.214 187.449 207.134 187.616 207.06 187.77C206.89 188.128 206.757 188.501 206.662 188.886C206.165 190.959 207.047 193.087 207.769 195.095C209.226 199.168 210.026 203.722 208.649 207.788C208.62 207.884 208.585 207.98 208.549 208.077L208.549 208.077L208.434 208.373C208.421 208.405 208.398 208.437 208.398 208.466C208.325 208.652 208.238 208.839 208.145 209.022V209.045C209.758 209.742 211.318 210.557 212.812 211.484C216.272 211.981 219.673 212.826 222.963 214.007C224.841 214.676 227.142 215.293 229.225 215.293C233.77 215.293 257.228 209.125 257.228 212.21C257.185 212.511 257.028 212.784 256.789 212.972L257.154 212.818Z" fill="url(#paint0_linear)"/>
<path d="M249.047 149.687C237.076 155.057 229.864 135.271 229.864 135.271C229.864 135.271 226.118 131.803 215.154 132.671C204.191 133.539 186.455 130.646 186.455 130.646C186.455 130.646 179.821 136.862 171.312 137.287C171.312 137.287 165.111 139.453 164.251 141.189C163.548 142.596 162.271 145.537 161.815 146.582C161.789 146.66 161.758 146.736 161.722 146.81C161.677 146.91 161.658 146.964 161.658 146.964L161.302 147.131L154.157 150.567L144.352 153.315L138.148 154.035L127.621 146.73C127.621 146.73 128.837 145.592 130.625 144.158C133.356 141.989 137.403 139.154 140.459 138.717C140.459 138.717 144.606 136.091 147.382 133.375C148.412 132.363 159.203 127.435 168.478 123.877C176.209 120.912 184.29 118.958 192.521 118.063L223.811 124.681C227.248 125.407 230.527 126.749 233.487 128.644C241.977 134.118 258.066 145.643 249.047 149.687Z" fill="#FFC1C7"/>
<g opacity="0.1">
<path opacity="0.1" d="M129.065 147.607C129.065 147.607 130.281 146.466 132.069 145.036C134.801 142.866 138.848 140.032 141.903 139.594C141.903 139.594 146.05 136.969 148.826 134.253C149.856 133.237 160.647 128.313 169.922 124.755C177.654 121.797 185.736 119.852 193.965 118.966L225.255 125.581C228.692 126.307 231.97 127.651 234.928 129.547C235.427 129.866 235.947 130.204 236.488 130.56C235.477 129.878 234.514 129.245 233.632 128.679C230.672 126.785 227.395 125.442 223.958 124.716L192.668 118.099C184.438 118.993 176.357 120.947 168.626 123.913C159.347 127.471 148.557 132.398 147.53 133.411C144.75 136.126 140.607 138.752 140.607 138.752C137.551 139.189 133.501 142.024 130.773 144.194C128.985 145.618 127.768 146.765 127.768 146.765L138.296 154.071H138.337L129.065 147.607Z" fill="black"/>
<path opacity="0.1" d="M231.318 136.136C230.924 135.815 230.493 135.542 230.034 135.323C230.323 136.088 233.975 145.563 240.205 149.201C234.524 144.93 231.318 136.136 231.318 136.136Z" fill="black"/>
</g>
<path d="M209.15 182.564C209.11 182.73 209.061 182.894 209.005 183.055C208.979 183.139 208.944 183.223 208.915 183.303C208.834 183.504 208.741 183.7 208.639 183.891C208.597 183.978 208.549 184.065 208.508 184.148C208.497 184.167 208.486 184.186 208.472 184.203C208.427 184.286 208.382 184.364 208.334 184.441C208.013 184.987 207.641 185.508 207.285 186.048C207.166 186.221 207.047 186.398 206.935 186.578C206.915 186.615 206.892 186.65 206.868 186.684C206.807 186.784 206.742 186.89 206.685 187.006C206.627 187.121 206.582 187.179 206.537 187.266C206.492 187.353 206.486 187.356 206.463 187.401L206.325 187.668C206.164 188.003 206.036 188.352 205.943 188.712C205.449 190.753 206.322 192.846 207.031 194.819C208.463 198.824 209.252 203.304 207.898 207.303C207.866 207.396 207.834 207.492 207.798 207.589C207.763 207.685 207.702 207.842 207.651 207.968C207.574 208.161 207.487 208.35 207.391 208.54C206.659 209.967 205.404 211.249 203.86 211.111C201.739 210.925 200.708 208.321 198.776 207.434C197.098 206.663 194.976 207.293 193.394 206.341C193.526 205.908 193.706 205.491 193.93 205.098C194.216 204.571 194.572 204.066 194.893 203.565C195.431 202.824 195.863 202.011 196.177 201.151C196.238 200.959 196.289 200.764 196.327 200.566C196.329 200.551 196.329 200.536 196.327 200.521C196.343 200.421 196.363 200.328 196.376 200.228C196.388 200.129 196.401 200.039 196.411 199.936C196.413 199.919 196.413 199.901 196.411 199.884C196.411 199.772 196.411 199.659 196.433 199.544C196.437 198.458 196.329 197.374 196.112 196.31C195.712 193.893 195.31 191.476 194.906 189.059C194.61 187.292 194.321 185.44 194.867 183.734C194.909 183.611 194.954 183.489 194.999 183.37C195.044 183.251 195.098 183.129 195.153 183.014C195.468 182.356 195.84 181.727 196.263 181.133C197.282 179.633 198.374 178.182 199.54 176.778C200.33 175.814 201.177 174.85 201.466 173.648C201.497 173.532 201.521 173.413 201.537 173.294C201.723 172.134 201.395 170.977 201.01 169.817C200.961 169.682 200.916 169.547 200.875 169.412C200.741 169.013 200.606 168.611 200.49 168.203C200.452 168.071 200.416 167.936 200.381 167.801C200.313 167.531 200.258 167.258 200.217 166.982C200.175 166.709 200.151 166.434 200.147 166.159C200.147 166.03 200.147 165.899 200.147 165.77C200.147 165.641 200.147 165.577 200.172 165.478C200.198 165.378 200.201 165.272 200.217 165.156C200.233 165.04 200.243 165.002 200.259 164.925C200.275 164.848 200.307 164.69 200.339 164.578C200.358 164.485 200.382 164.394 200.413 164.304C200.429 164.23 200.452 164.157 200.471 164.086L200.554 163.829L200.686 163.456C200.728 163.334 200.776 163.208 200.824 163.086C201.065 162.443 201.341 161.801 201.581 161.183C201.717 160.827 201.834 160.463 201.931 160.094C201.931 160.026 201.967 159.952 201.983 159.882C202.002 159.811 202.018 159.739 202.031 159.666C202.053 159.578 202.07 159.487 202.082 159.396C202.105 159.278 202.127 159.152 202.14 159.03C202.153 158.908 202.166 158.783 202.175 158.657C202.185 158.532 202.175 158.41 202.175 158.288C202.181 157.852 202.119 157.418 201.992 157.002C201.945 156.832 201.882 156.666 201.806 156.507C201.75 156.397 201.689 156.29 201.623 156.186C201.212 155.517 200.574 155.006 200.201 154.309C199.982 153.88 199.871 153.404 199.88 152.923C199.879 152.792 199.888 152.661 199.906 152.531C199.925 152.398 199.955 152.267 199.996 152.139C200.009 152.087 200.026 152.037 200.047 151.988C200.071 151.934 200.093 151.883 200.115 151.834C200.146 151.769 200.182 151.707 200.221 151.647C200.253 151.605 200.282 151.56 200.314 151.522C200.654 151.091 201.2 150.879 201.947 151.098L202.13 151.159C202.558 151.296 202.971 151.476 203.363 151.695C204.553 152.375 205.567 153.327 206.322 154.472C207.638 156.459 208.2 158.863 208.363 161.241C208.463 162.255 208.412 163.277 208.212 164.275C208.212 164.317 208.19 164.365 208.183 164.407C208.158 164.504 208.135 164.6 208.103 164.693C207.908 165.277 207.683 165.85 207.429 166.41C207.223 166.874 207.066 167.359 206.961 167.856C206.659 169.508 207.317 171.157 207.85 172.748C208.354 174.258 208.755 175.801 209.05 177.366C209.422 179.092 209.602 180.902 209.15 182.564Z" fill="#965D7B"/>
<g opacity="0.1">
<path opacity="0.1" d="M207.474 166.416C207.73 165.854 207.956 165.279 208.151 164.693C208.193 164.555 208.232 164.417 208.264 164.275C207.936 164.963 207.672 165.68 207.474 166.416Z" fill="black"/>
<path opacity="0.1" d="M201.69 156.186C202.403 157.343 202.332 158.757 201.979 160.116C202.005 160.046 202.034 159.978 202.06 159.907C202.673 158.3 203.022 156.372 202.124 154.887C201.71 154.219 201.068 153.704 200.699 153.01C200.464 152.551 200.353 152.037 200.378 151.522C199.835 152.197 199.797 153.405 200.282 154.312C200.635 155.006 201.276 155.517 201.69 156.186Z" fill="black"/>
<path opacity="0.1" d="M206.392 187.427C206.376 187.497 206.364 187.568 206.351 187.642C207.057 186.141 208.302 184.868 208.918 183.313C209.048 182.986 209.15 182.65 209.223 182.307C208.398 184.077 206.835 185.514 206.392 187.427Z" fill="black"/>
<path opacity="0.1" d="M208.084 206.682C207.423 208.315 206.046 209.977 204.29 209.822C202.169 209.639 201.142 207.036 199.206 206.145C197.563 205.39 195.496 205.975 193.927 205.11C193.704 205.504 193.524 205.922 193.391 206.354C194.973 207.319 197.094 206.676 198.773 207.444C200.699 208.334 201.735 210.941 203.857 211.124C205.613 211.275 206.989 209.613 207.651 207.981C207.828 207.54 207.979 207.089 208.103 206.631L208.084 206.682Z" fill="black"/>
<path opacity="0.1" d="M196.138 196.323C196.372 197.731 196.603 199.193 196.327 200.579C196.435 200.347 196.528 200.108 196.606 199.865C197.101 198.313 196.838 196.632 196.571 195.025C196.171 192.608 195.769 190.19 195.364 187.77C195.104 186.199 194.848 184.556 195.178 183.023C195.068 183.258 194.973 183.5 194.893 183.746C194.347 185.453 194.639 187.301 194.931 189.069C195.335 191.49 195.738 193.908 196.138 196.323Z" fill="black"/>
<path opacity="0.1" d="M201.935 172.362C202.554 169.874 200.651 167.435 200.615 164.873C200.621 164.277 200.706 163.685 200.869 163.112C200.449 164.08 200.217 165.12 200.185 166.175C200.208 168.618 201.944 170.948 201.569 173.32C201.726 173.015 201.849 172.694 201.935 172.362Z" fill="black"/>
</g>
<path d="M271.257 208.35C267.653 220.336 259.575 224.957 259.575 224.957C259.575 224.957 250.777 233.047 248.9 237.245C247.022 241.443 241.402 240.279 239.098 237.245C236.793 234.211 229.578 235.371 229.578 235.371L218.614 236.236C218.614 236.236 198.747 238.874 192.078 234.253C185.409 229.631 180.973 229.595 180.973 229.595C180.973 229.595 175.78 231.903 169.871 232.196C167.064 232.383 164.275 232.778 161.526 233.378C159.995 233.7 158.657 234.021 157.697 234.249C156.738 234.478 156.166 234.648 156.166 234.648L141.48 233.166L127.608 231.762L120.111 230.746L118.143 226.458L116.249 222.338L115.608 220.93L116.506 206.206H140.161C140.161 206.206 164.829 207.492 167.997 207.492H168.716C168.716 207.492 172.66 205.911 179.099 209.8C179.919 210.261 180.779 210.65 181.666 210.963C191.898 214.791 220.646 219.767 220.646 219.767L239.261 218.61C239.261 218.61 249.728 214.791 255.63 212.275C257.597 211.433 259.061 210.735 259.453 210.378C261.016 208.929 274.862 196.362 271.257 208.35Z" fill="#FFC1C7"/>
<path opacity="0.1" d="M124.636 220.68L125.775 224.742L121.879 226.857L118.146 226.446L116.253 222.325L115.611 220.917L116.509 206.194H140.148C135.215 206.637 124.636 220.68 124.636 220.68Z" fill="black"/>
<path d="M124.203 220.68L125.342 224.742L121.449 226.857L111.605 225.774L106.303 221.496C97.6373 207.415 87.1581 207.354 87.1581 207.354C87.1581 207.354 88.458 205.454 88.4034 203.722C88.3489 201.99 90.3099 197.548 90.3099 197.548L90.4961 197.458C91.1572 197.136 93.4007 196.024 93.5419 195.976C93.5419 195.976 138.049 203.179 138.915 203.452C139.139 203.545 139.322 203.715 139.432 203.931C139.936 204.722 140.16 206.181 140.16 206.181C135.462 205.747 124.203 220.68 124.203 220.68Z" fill="#565988"/>
<path d="M176.794 160.544C175.486 160.516 174.179 160.599 172.885 160.791C170.731 161.142 168.668 161.961 169.582 163.867C171.312 167.477 160.352 173.831 160.352 173.831L145.061 183.653L135.542 169.209L140.449 157.51L154.148 150.577L161.651 146.971C161.651 146.971 164.623 148.054 167.236 147.993C168.443 147.967 169.576 147.697 170.304 146.971C172.609 144.66 176.794 160.544 176.794 160.544Z" fill="#FFC1C7"/>
<path opacity="0.1" d="M176.794 160.544C175.486 160.516 174.179 160.599 172.885 160.791C171.105 159.54 169.653 157.877 168.652 155.944C167.651 154.011 167.13 151.864 167.133 149.687C167.132 149.12 167.166 148.555 167.236 147.993C168.443 147.967 169.576 147.697 170.304 146.971C172.609 144.66 176.794 160.544 176.794 160.544Z" fill="black"/>
<path d="M195.108 149.687C195.108 151.47 194.758 153.235 194.077 154.882C193.396 156.53 192.398 158.027 191.139 159.288C189.881 160.548 188.386 161.549 186.742 162.232C185.097 162.914 183.334 163.266 181.554 163.266C180.926 163.266 180.298 163.222 179.676 163.134C176.273 162.662 173.176 160.914 171.011 158.242C168.846 155.571 167.775 152.176 168.013 148.744C168.252 145.312 169.782 142.099 172.296 139.754C174.809 137.408 178.118 136.106 181.554 136.11C182.073 136.112 182.591 136.141 183.107 136.197C186.411 136.581 189.459 138.167 191.672 140.654C193.884 143.141 195.107 146.356 195.108 149.687Z" fill="#FFC1C7"/>
<path opacity="0.1" d="M255.681 212.538C255.681 214.261 246.537 217.761 238.651 220.461C233.12 222.308 227.305 223.154 221.477 222.958C221.006 222.934 220.534 222.976 220.075 223.084C217.911 223.659 189.789 217.015 189.789 217.015C189.789 217.015 184.048 214.348 181.672 210.957C191.904 214.785 220.652 219.76 220.652 219.76L239.268 218.603C239.268 218.603 249.734 214.785 255.636 212.268C255.676 212.352 255.691 212.446 255.681 212.538Z" fill="black"/>
<path d="M170.879 165.198C170.879 165.198 172.898 170.511 175.494 171.809C178.091 173.108 183.281 178.308 182.851 185.096C182.851 185.096 181.984 186.977 184.725 190.882C187.466 194.787 194.1 203.301 194.1 203.301C194.1 203.301 207.654 208.067 211.98 210.957H211.996C215.398 211.446 218.742 212.281 221.975 213.448C223.824 214.091 226.086 214.711 228.134 214.711C232.605 214.711 255.681 208.646 255.681 211.677C255.681 213.403 246.537 216.903 238.648 219.603C233.117 221.445 227.303 222.287 221.477 222.09C221.006 222.068 220.534 222.11 220.075 222.216C217.912 222.791 189.786 216.148 189.786 216.148C189.786 216.148 183.858 213.406 181.551 209.925C179.243 206.444 173.334 201.996 173.334 201.996C173.334 201.996 166.845 191.02 166.273 188.42C166.273 188.42 162.958 186.543 154.302 189.429C145.646 192.315 152.418 182.927 152.418 182.927L162.082 171.677L170.879 165.198Z" fill="#FFC1C7"/>
<path opacity="0.1" d="M173.62 169.212L170.606 161.871C167.798 163.656 165.184 165.729 162.804 168.055C159.196 171.665 156.744 173.841 155.014 174.265C153.284 174.689 147.372 177.704 144.92 171.507C142.468 165.31 143.476 161.122 145.784 159.101C148.091 157.079 163.706 147.572 163.706 147.572L161.655 147.414C161.655 147.414 147.379 152.419 142.908 150.133C142.908 150.133 134.974 151.461 133.244 148.571C131.514 145.682 129.88 145.226 129.88 145.226L119.398 159.403L123.15 190.743H132.811L143.193 186.7L157.039 185.543C157.039 185.543 162.232 180.632 162.955 178.321C163.677 176.01 169.162 168.489 173.62 169.212Z" fill="black"/>
<path d="M173.62 168.785L170.606 161.444C167.798 163.229 165.184 165.301 162.804 167.628C159.196 171.24 156.744 173.413 155.014 173.837C153.284 174.262 147.372 177.276 144.92 171.08C142.468 164.883 143.476 160.695 145.784 158.673C148.091 156.652 163.706 147.572 163.706 147.572L161.655 146.984C161.655 146.984 147.379 151.985 142.908 149.7C142.908 149.7 134.974 151.027 133.244 148.137C131.514 145.248 129.88 144.792 129.88 144.792L119.398 158.969L123.15 190.31H132.811L143.193 186.266L157.039 185.109C157.039 185.109 162.232 180.201 162.955 177.89C163.677 175.579 169.162 168.055 173.62 168.785Z" fill="#565988"/>
<path opacity="0.1" d="M139.432 203.937C139.265 204.734 139.13 205.245 139.13 205.245C139.13 205.245 138.536 205.027 131.238 206.438C123.939 207.849 116.689 206.438 116.689 206.438C112.45 205.946 108.255 205.13 104.14 203.998C97.8684 202.211 89.6456 200.096 90.3388 197.892C90.3838 197.763 90.4287 197.618 90.4832 197.477C91.1444 197.156 93.3879 196.044 93.5291 195.995C93.5291 195.995 138.036 203.198 138.902 203.471C139.129 203.558 139.317 203.724 139.432 203.937Z" fill="black"/>
<path opacity="0.1" d="M170.606 161.871L173.11 167.538C173.11 167.538 169.258 165.49 164.335 173.886C159.411 182.281 158.763 183.473 158.763 183.473C158.763 183.473 155.303 185.839 156.17 188.854C156.17 188.854 145.918 192.389 139.159 190.052C139.159 190.052 137.644 194.629 137.808 197.718C137.909 199.367 137.917 201.021 137.834 202.671C137.834 202.671 139.759 201.209 132.454 202.62C125.149 204.031 117.906 203.619 117.906 203.619C113.92 202.968 109.974 202.091 106.088 200.993C99.8134 199.206 90.0788 199.666 90.7817 197.458C91.4846 195.25 93.8115 191.068 93.8115 191.068C93.8115 191.068 95.4869 190.104 95.4163 189.172C95.3457 188.24 98.5007 185.543 98.5007 185.543C98.5007 185.543 100.446 183.92 100.176 182.564C99.9064 181.207 102.07 178.99 102.07 178.99L106.181 170.922C106.181 170.922 109.641 163.392 112.022 163.067C114.404 162.742 118.782 155.81 118.782 155.81C118.782 155.81 126.568 149.529 126.623 148.227C126.677 146.926 130.516 144.599 130.516 144.599C130.516 144.599 131.135 149.915 136.293 150.133C141.451 150.352 148.265 150.133 148.265 150.133L161.645 146.984C161.645 146.984 155.784 152.29 154.43 152.669C153.076 153.049 149.006 155.973 146.933 156.526C144.859 157.079 140.645 159.914 140.809 163.964C140.972 168.013 142.378 170.07 142.378 170.07C142.378 170.07 146.596 178.106 150.813 177.141C150.813 177.141 155.525 177.395 157.412 174.596C159.299 171.796 170.606 161.871 170.606 161.871Z" fill="black"/>
<path opacity="0.1" d="M162.082 146.537L161.716 146.816L161.295 147.138L154.151 150.574L144.346 153.322L138.142 154.042L127.614 146.736C127.614 146.736 128.831 145.598 130.619 144.165C130.907 145.45 132.085 149.063 136.303 149.24C141.454 149.462 148.274 149.24 148.274 149.24L161.812 146.575L162.082 146.537Z" fill="black"/>
<path d="M170.606 161.437L173.11 167.544C173.11 167.544 168.825 165.066 163.901 173.461C158.978 181.856 158.333 183.046 158.333 183.046C158.333 183.046 155.303 185.845 156.17 188.86C156.17 188.86 146.811 193.607 140.051 191.277C140.051 191.277 139.891 194.096 140.051 197.181C140.212 200.267 139.133 204.384 139.133 204.384C139.133 204.384 138.536 204.169 131.235 205.576C123.933 206.984 116.689 205.576 116.689 205.576C112.45 205.086 108.255 204.272 104.14 203.14C97.8684 201.353 89.6456 199.238 90.3388 197.033C91.0321 194.829 93.3686 190.641 93.3686 190.641C93.3686 190.641 95.044 189.676 94.9926 188.744C94.9413 187.812 98.0738 185.116 98.0738 185.116C98.0738 185.116 100.022 183.509 99.7492 182.139C99.4764 180.77 101.643 178.562 101.643 178.562L105.754 170.495C105.754 170.495 109.214 162.964 111.596 162.639C113.977 162.315 118.355 155.382 118.355 155.382C118.355 155.382 126.154 149.082 126.205 147.781C126.257 146.479 130.102 144.152 130.102 144.152C130.102 144.152 130.718 149.468 135.879 149.687C141.04 149.905 147.854 149.687 147.854 149.687L161.655 146.971C161.655 146.971 155.364 151.843 154.013 152.223C152.662 152.602 148.586 155.527 146.512 156.079C144.439 156.632 140.221 159.493 140.382 163.555C140.542 167.618 141.951 169.662 141.951 169.662C141.951 169.662 146.169 177.678 150.389 176.704C150.389 176.704 155.098 176.955 156.985 174.159C158.872 171.362 170.606 161.437 170.606 161.437Z" fill="#E8F4FF"/>
<path opacity="0.1" d="M128.641 181.088C128.641 181.088 133.94 190.946 136.373 192.016C138.806 193.087 138.321 191.258 138.321 191.258C138.321 191.258 129.399 183.248 128.641 181.088Z" fill="black"/>
<path opacity="0.1" d="M118.419 188.564C118.419 188.564 123.612 196.85 127.451 196.85L118.419 188.564Z" fill="black"/>
<path opacity="0.1" d="M107.006 178.327C107.006 178.327 113.065 197.499 124.206 199.017C124.206 199.017 109.657 188.294 107.006 178.327Z" fill="black"/>
<path opacity="0.1" d="M108.088 194.899C108.088 194.899 118.095 202.861 124.206 201.671C124.206 201.671 113.768 199.884 108.088 194.899Z" fill="black"/>
<path opacity="0.1" d="M100.661 208.559C100.661 208.559 110.665 216.52 116.779 215.328C116.779 215.328 106.338 213.541 100.661 208.559Z" fill="black"/>
<path opacity="0.1" d="M103.276 213.078C103.276 213.078 113.281 221.039 119.391 219.85C119.391 219.85 108.954 218.063 103.276 213.078Z" fill="black"/>
<path opacity="0.1" d="M104.788 205.747C104.788 205.747 114.792 213.699 120.903 212.496C120.903 212.496 110.466 210.719 104.788 205.747Z" fill="black"/>
<path opacity="0.1" d="M150.867 158.612L144.596 166.683L145.459 168.306L150.867 158.612Z" fill="black"/>
<path opacity="0.1" d="M195.108 149.687C195.108 151.47 194.758 153.235 194.077 154.882C193.396 156.53 192.398 158.027 191.139 159.288C189.881 160.549 188.386 161.549 186.742 162.232C185.097 162.914 183.334 163.266 181.554 163.266C180.926 163.266 180.298 163.222 179.676 163.134C179.876 162.906 180.044 162.651 180.174 162.376C180.575 161.254 178.89 160.084 179.42 159.011C179.692 158.439 180.427 158.294 181.06 158.278C181.692 158.262 182.395 158.278 182.854 157.841C183.383 157.33 183.31 156.488 183.444 155.765C183.656 154.665 184.426 153.749 185.264 153C186.102 152.252 187.039 151.605 187.761 150.751C188.868 149.433 189.388 147.71 189.526 145.994C189.616 144.885 189.526 143.705 188.942 142.78C188.3 141.786 187.199 141.227 186.192 140.616C185.254 140.097 184.438 139.384 183.797 138.524C183.387 137.92 182.976 136.978 183.107 136.213C186.409 136.597 189.454 138.181 191.666 140.664C193.879 143.148 195.103 146.359 195.108 149.687Z" fill="black"/>
<path d="M202.541 150.352C202.488 150.577 202.403 150.794 202.288 150.995C202.255 151.053 202.217 151.114 202.182 151.175L201.986 151.474C201.677 151.86 201.473 152.319 201.392 152.808C201.354 153.402 201.678 153.945 201.89 154.511L201.925 154.611C201.954 154.691 201.979 154.772 201.999 154.855C202.13 155.414 202.086 155.999 201.874 156.533C201.641 157.128 201.298 157.673 200.863 158.14C200.044 159.024 199.014 159.692 198.189 160.566C197.573 161.209 197.075 161.971 196.465 162.62C195.021 164.15 192.999 165.027 190.942 165.445C189.331 165.736 187.696 165.868 186.06 165.841H184.664C184.445 165.854 184.226 165.82 184.022 165.741C183.786 165.583 183.583 165.381 183.422 165.146C182.581 164.182 181.175 163.999 179.891 163.89C179.878 163.767 179.89 163.643 179.926 163.525C179.963 163.408 180.023 163.299 180.103 163.205C180.311 162.959 180.488 162.688 180.63 162.398C181.034 161.273 179.346 160.107 179.879 159.027C179.928 158.925 179.995 158.834 180.078 158.757C180.131 158.703 180.19 158.654 180.254 158.612C180.64 158.395 181.076 158.284 181.519 158.291C181.756 158.291 182.003 158.291 182.244 158.262C182.626 158.247 182.992 158.104 183.284 157.857C183.813 157.352 183.74 156.507 183.874 155.787C184.086 154.681 184.857 153.769 185.694 153.023C186.532 152.277 187.469 151.628 188.191 150.773C189.299 149.458 189.818 147.729 189.957 146.019C190.046 144.911 189.957 143.728 189.372 142.805C188.814 141.937 187.896 141.401 187.001 140.877L186.622 140.652C185.926 140.25 185.288 139.756 184.725 139.183C184.55 138.97 184.39 138.744 184.247 138.508C183.846 137.917 183.448 137.007 183.547 136.258C183.551 136.208 183.56 136.159 183.573 136.11C183.762 135.284 184.577 135.275 185.351 135.172C185.559 135.146 185.765 135.124 185.973 135.111C186.281 135.093 186.59 135.093 186.898 135.111C188.217 135.16 189.506 135.514 190.666 136.146C191.096 136.38 191.507 136.653 191.95 136.856C193.002 137.328 194.196 137.39 195.281 137.737C197.476 138.424 199.181 140.224 200.262 142.256C201.344 144.287 201.883 146.553 202.413 148.79C202.57 149.295 202.614 149.828 202.541 150.352Z" fill="#965D7B"/>
<path opacity="0.1" d="M161.53 233.366C161.463 233.658 161.355 233.939 161.209 234.201C161.209 234.201 159.777 234.253 157.678 234.237C154.812 234.214 150.717 234.066 147.408 233.481C145.434 233.197 143.44 233.089 141.448 233.16L127.576 231.755L120.078 230.74L116.227 222.332C118.454 222.454 120.374 222.367 120.374 222.367C124.633 218.324 128.597 218.973 130.76 220.728C132.923 222.483 136.964 223.881 137.249 223.881C137.442 223.881 143.819 224.016 147.921 224.099C151.099 224.147 154.215 224.981 156.991 226.529C161.78 229.21 161.851 232.012 161.53 233.366Z" fill="black"/>
<path d="M90.3067 206.197L87.1582 207.354C87.1582 207.354 78.4347 201.344 65.6703 204.159C52.906 206.975 53.7726 214.486 53.7726 214.486C53.7726 214.486 54.2765 223.691 57.945 226.851C61.6135 230.01 63.9308 230.155 66.0202 232.54C68.1096 234.924 78.9289 236.004 78.9289 236.004C78.9289 236.004 100.346 237.087 111.884 236.004C123.423 234.921 128.632 234.921 128.632 234.921C128.632 234.921 141.303 233.333 147 234.343C152.697 235.352 160.775 235.066 160.775 235.066C160.775 235.066 163.157 231.119 156.574 227.387C153.798 225.838 150.682 225.003 147.504 224.957C143.405 224.871 137.028 224.739 136.832 224.739C136.543 224.739 132.506 223.341 130.343 221.586C128.179 219.831 124.216 219.179 119.96 223.222C119.96 223.222 110.514 223.656 109.214 221.274C107.914 218.892 101.21 211.417 101.21 211.417L90.3067 206.197Z" fill="#FFC1C7"/>
<path opacity="0.1" d="M105.979 220.384C105.979 220.384 105.908 221.692 108.829 221.477C111.531 221.274 100.824 211.619 100.824 211.619L89.912 206.396L86.7634 207.556C86.7634 207.556 97.326 206.303 105.979 220.384Z" fill="black"/>
<path d="M106.412 219.95C106.412 219.95 106.342 221.258 109.262 221.043C111.965 220.843 101.258 211.185 101.258 211.185L90.3452 205.962L87.1934 207.122C87.1934 207.122 97.7592 205.869 106.412 219.95Z" fill="#565988"/>
<path opacity="0.1" d="M75.4048 211.021C75.4048 211.021 78.5053 209.433 83.05 211.42C84.6727 212.119 86.3439 212.701 88.0504 213.159C90.787 213.898 93.4138 214.997 95.8624 216.427C99.027 218.269 103.321 220.48 105.709 220.48" stroke="black" stroke-miterlimit="10"/>
<path opacity="0.1" d="M185.53 165.815C185.312 165.83 185.092 165.796 184.889 165.715C184.651 165.559 184.447 165.357 184.288 165.121C183.447 164.156 182.026 163.973 180.758 163.867C180.655 163.308 181.3 162.903 181.493 162.376C181.9 161.251 180.209 160.084 180.742 159.008C181.018 158.439 181.753 158.294 182.385 158.278C183.017 158.262 183.72 158.278 184.176 157.838C184.706 157.33 184.632 156.484 184.77 155.765C184.978 154.662 185.749 153.746 186.586 153C187.424 152.255 188.364 151.605 189.087 150.751C190.191 149.436 190.711 147.71 190.852 145.997C190.942 144.885 190.852 143.705 190.265 142.767C189.623 141.777 188.522 141.218 187.514 140.604C186.577 140.084 185.76 139.371 185.12 138.511C184.696 137.888 184.266 136.904 184.446 136.117C184.625 135.329 185.453 135.281 186.227 135.178C186.455 135.146 186.679 135.127 186.911 135.114C186.393 135.09 185.874 135.112 185.36 135.178C184.587 135.281 183.756 135.291 183.579 136.117C183.403 136.943 183.829 137.888 184.256 138.511C184.897 139.371 185.713 140.084 186.651 140.604C187.629 141.211 188.74 141.786 189.382 142.751C189.982 143.689 190.059 144.869 189.969 145.981C189.828 147.694 189.327 149.42 188.204 150.734C187.482 151.596 186.545 152.242 185.707 152.984C184.869 153.727 184.102 154.646 183.887 155.748C183.749 156.468 183.823 157.314 183.297 157.822C182.841 158.259 182.135 158.246 181.502 158.262C180.87 158.278 180.135 158.423 179.859 158.991C179.339 160.068 181.018 161.241 180.613 162.36C180.418 162.893 179.776 163.292 179.875 163.851C181.159 163.957 182.578 164.131 183.406 165.105C183.563 165.342 183.767 165.544 184.006 165.699C184.21 165.781 184.429 165.815 184.648 165.799C185.113 165.799 185.582 165.799 186.05 165.799L185.53 165.815Z" fill="black"/>
<path d="M202.056 157.018C202.185 156.607 202.329 156.147 202.47 155.658C202.885 154.366 203.2 153.043 203.411 151.702C203.019 151.482 202.606 151.303 202.178 151.165C202.214 151.104 202.252 151.043 202.284 150.985L201.995 151.104C201.995 151.104 201.995 151.239 201.995 151.464C201.973 152.075 201.928 153.367 201.899 154.501C201.899 154.521 201.899 154.537 201.899 154.553C201.877 155.45 201.864 156.243 201.899 156.526L202.056 157.018Z" fill="#565988"/>
<path opacity="0.1" d="M294.507 228.406C302.221 228.406 308.475 227.546 308.475 226.484C308.475 225.423 302.221 224.562 294.507 224.562C286.793 224.562 280.539 225.423 280.539 226.484C280.539 227.546 286.793 228.406 294.507 228.406Z" fill="#91C0DC"/>
<path d="M300.172 224.09C300.759 223.543 301.308 222.9 301.478 222.116C301.648 221.332 301.311 220.39 300.563 220.104C299.726 219.783 298.83 220.368 298.153 220.953C297.476 221.538 296.696 222.213 295.807 222.087C296.262 221.672 296.602 221.145 296.794 220.559C296.986 219.972 297.023 219.346 296.901 218.741C296.86 218.489 296.748 218.253 296.58 218.06C296.115 217.562 295.271 217.777 294.716 218.169C292.944 219.416 292.45 221.827 292.44 223.996C292.26 223.212 292.411 222.389 292.408 221.596C292.405 220.802 292.183 219.902 291.506 219.471C291.084 219.245 290.611 219.134 290.132 219.15C289.336 219.121 288.451 219.198 287.905 219.792C287.231 220.516 287.404 221.721 287.995 222.531C288.585 223.341 289.475 223.816 290.299 224.379C290.959 224.774 291.522 225.312 291.946 225.954C291.995 226.043 292.036 226.137 292.068 226.233H297.062C298.192 225.665 299.238 224.943 300.172 224.09Z" fill="#91C0DC"/>
<path opacity="0.1" d="M339.168 236.657C346.882 236.657 353.136 235.796 353.136 234.735C353.136 233.673 346.882 232.813 339.168 232.813C331.453 232.813 325.2 233.673 325.2 234.735C325.2 235.796 331.453 236.657 339.168 236.657Z" fill="#91C0DC"/>
<path d="M344.833 232.34C345.42 231.794 345.969 231.151 346.139 230.367C346.309 229.583 345.972 228.641 345.224 228.355C344.387 228.033 343.491 228.615 342.814 229.203C342.137 229.791 341.357 230.463 340.468 230.338C340.925 229.923 341.267 229.396 341.461 228.809C341.654 228.222 341.692 227.595 341.572 226.989C341.529 226.737 341.418 226.503 341.251 226.311C340.785 225.812 339.941 226.025 339.386 226.42C337.614 227.667 337.12 230.078 337.111 232.244C336.931 231.463 337.082 230.637 337.078 229.846C337.075 229.055 336.854 228.152 336.177 227.722C335.755 227.495 335.281 227.384 334.803 227.4C334.007 227.371 333.121 227.452 332.575 228.043C331.901 228.766 332.075 229.971 332.665 230.781C333.256 231.591 334.145 232.067 334.97 232.63C335.63 233.024 336.193 233.562 336.616 234.204C336.666 234.293 336.707 234.387 336.738 234.484H341.732C342.858 233.913 343.901 233.192 344.833 232.34Z" fill="#91C0DC"/>
<path opacity="0.1" d="M311.531 248.471C319.245 248.471 325.499 247.611 325.499 246.549C325.499 245.488 319.245 244.627 311.531 244.627C303.817 244.627 297.563 245.488 297.563 246.549C297.563 247.611 303.817 248.471 311.531 248.471Z" fill="#91C0DC"/>
<path d="M316.803 244.386C317.39 243.84 317.939 243.197 318.109 242.413C318.279 241.628 317.946 240.69 317.198 240.404C316.357 240.082 315.461 240.664 314.784 241.249C314.107 241.834 313.327 242.509 312.438 242.384C312.895 241.969 313.237 241.443 313.43 240.856C313.624 240.27 313.662 239.643 313.542 239.038C313.5 238.785 313.389 238.549 313.221 238.356C312.756 237.858 311.915 238.074 311.356 238.466C309.585 239.713 309.09 242.123 309.081 244.293C308.901 243.509 309.052 242.686 309.049 241.892C309.046 241.098 308.824 240.198 308.147 239.767C307.726 239.541 307.254 239.43 306.776 239.446C305.977 239.417 305.091 239.497 304.549 240.089C303.872 240.815 304.048 242.017 304.636 242.827C305.223 243.637 306.118 244.113 306.94 244.675C307.6 245.069 308.163 245.608 308.587 246.25C308.638 246.338 308.679 246.432 308.709 246.53H313.703C314.829 245.96 315.872 245.239 316.803 244.386Z" fill="#91C0DC"/>
<path opacity="0.1" d="M27.939 225.269C35.6532 225.269 41.9069 224.409 41.9069 223.347C41.9069 222.286 35.6532 221.425 27.939 221.425C20.2247 221.425 13.9711 222.286 13.9711 223.347C13.9711 224.409 20.2247 225.269 27.939 225.269Z" fill="#91C0DC"/>
<path d="M33.6006 220.953C34.188 220.406 34.74 219.763 34.9069 218.979C35.0738 218.195 34.7432 217.253 33.9954 216.967C33.1577 216.646 32.2623 217.228 31.5818 217.816C30.9014 218.404 30.1247 219.076 29.2357 218.95C29.6935 218.536 30.0359 218.009 30.2294 217.422C30.423 216.835 30.461 216.207 30.3398 215.601C30.2962 215.35 30.1852 215.116 30.0188 214.923C29.5534 214.425 28.7093 214.637 28.1509 215.032C26.3792 216.279 25.8849 218.69 25.8753 220.856C25.6988 220.075 25.8496 219.249 25.8432 218.459C25.8368 217.668 25.6185 216.765 24.9445 216.334C24.5228 216.108 24.049 215.997 23.5708 216.013C22.7749 215.984 21.8858 216.064 21.3434 216.655C20.6662 217.379 20.8427 218.584 21.4301 219.394C22.0174 220.204 22.9129 220.68 23.7377 221.242C24.3979 221.636 24.9608 222.175 25.3842 222.817C25.4331 222.906 25.474 223 25.5062 223.096H30.5099C31.6321 222.525 32.6719 221.804 33.6006 220.953Z" fill="#91C0DC"/>
<path opacity="0.1" d="M13.9679 252.528C21.6822 252.528 27.9358 251.667 27.9358 250.606C27.9358 249.544 21.6822 248.684 13.9679 248.684C6.25364 248.684 0 249.544 0 250.606C0 251.667 6.25364 252.528 13.9679 252.528Z" fill="#91C0DC"/>
<path d="M19.6328 248.211C20.2201 247.665 20.769 247.022 20.9391 246.238C21.1092 245.454 20.7754 244.512 20.0276 244.226C19.1867 243.905 18.2912 244.486 17.614 245.074C16.9368 245.663 16.1569 246.334 15.2678 246.209C15.7279 245.796 16.0731 245.27 16.2694 244.683C16.4657 244.096 16.5066 243.468 16.3879 242.86C16.3455 242.609 16.2344 242.374 16.067 242.182C15.6016 241.684 14.7607 241.896 14.2022 242.291C12.4306 243.538 11.9363 245.949 11.9267 248.118C11.7469 247.334 11.8978 246.511 11.8946 245.717C11.8914 244.923 11.6699 244.023 10.9927 243.593C10.5727 243.365 10.0995 243.254 9.62224 243.271C8.82306 243.239 7.93723 243.32 7.39482 243.914C6.7176 244.637 6.89413 245.843 7.48147 246.653C8.06882 247.463 8.96428 247.938 9.78592 248.501C10.4468 248.894 11.0098 249.432 11.4324 250.076C11.484 250.164 11.525 250.257 11.5544 250.355H16.5452C17.6664 249.783 18.705 249.062 19.6328 248.211Z" fill="#91C0DC"/>
<defs>
<linearGradient id="paint0_linear" x1="162.807" y1="240.977" x2="162.807" y2="117.067" gradientUnits="userSpaceOnUse">
<stop stop-color="#808080" stop-opacity="0.25"/>
<stop offset="0.54" stop-color="#808080" stop-opacity="0.12"/>
<stop offset="1" stop-color="#808080" stop-opacity="0.1"/>
</linearGradient>
</defs>
</svg>
