<svg width="324" height="220" viewBox="0 0 324 220" fill="none" xmlns="http://www.w3.org/2000/svg">
<path opacity="0.1" d="M42.5243 207.631C54.908 208.16 65.077 205.54 65.2375 201.781C65.3979 198.021 55.4889 194.545 43.1052 194.016C30.7215 193.488 20.5524 196.107 20.392 199.867C20.2316 203.627 30.1405 207.103 42.5243 207.631Z" fill="#91C0DC"/>
<path opacity="0.1" d="M146.621 193.604C217.157 196.614 274.517 194.864 274.738 189.696C274.958 184.528 217.956 177.898 147.419 174.889C76.8828 171.879 19.5229 173.628 19.3024 178.797C19.0818 183.965 76.0842 190.594 146.621 193.604Z" fill="#91C0DC"/>
<path d="M181.509 152.332C181.509 152.332 190.137 156.678 194.394 156.86C194.394 156.86 198.886 158.187 201.387 159.432C203.888 160.678 213.802 161.665 213.802 161.665C213.802 161.665 225.258 166.416 226.591 168.463C227.924 170.51 232.568 161.621 232.568 161.621L230.538 155.853L188.041 145.8L181.509 152.332Z" fill="#FFB9B9"/>
<path opacity="0.05" d="M181.509 152.332C181.509 152.332 190.137 156.678 194.394 156.86C194.394 156.86 198.886 158.187 201.387 159.432C203.888 160.678 213.802 161.665 213.802 161.665C213.802 161.665 225.258 166.416 226.591 168.463C227.924 170.51 232.568 161.621 232.568 161.621L230.538 155.853L188.041 145.8L181.509 152.332Z" fill="black"/>
<path d="M224.401 166.666C224.401 166.666 229.49 173.981 227.039 178.144C224.589 182.307 225.44 182.337 226.846 182.681C228.251 183.025 236.126 185.068 237.246 178.863C238.366 172.659 240.661 158.837 240.661 158.837L229.057 157.203C229.057 157.203 231.744 167.831 224.401 166.666Z" fill="#737A9D"/>
<path d="M158.351 141.969L182.275 154.355C182.275 154.355 190.192 148.725 189.752 145.583L161.661 137.565L158.351 141.969Z" fill="#4C4C78"/>
<path opacity="0.1" d="M158.351 141.969L182.275 154.355C182.275 154.355 190.192 148.725 189.752 145.583L161.661 137.565L158.351 141.969Z" fill="black"/>
<path d="M260.181 161.089L257.35 167.217L251.34 168.374C249.732 166.913 248.002 165.592 246.169 164.426C243.045 162.441 238.908 160.453 234.907 160.569C234.907 160.569 219.122 157.338 218.32 156.159C218.32 156.159 208.199 153.452 205.918 153.639C204.818 153.728 202.499 152.842 200.396 151.897C198.139 150.875 196.128 149.811 196.128 149.811L204.004 138.498C204.849 138.905 205.721 139.252 206.615 139.535C209.401 140.481 214.432 141.77 221.765 142.083C233.686 142.591 249.626 155.489 249.626 155.489C249.626 155.489 249.787 155.551 250.064 155.646C251.281 156.071 254.758 157.099 256.439 155.779C258.483 154.197 260.181 161.089 260.181 161.089Z" fill="#FFB9B9"/>
<path opacity="0.1" d="M260.181 161.089L257.35 167.217L251.34 168.374C249.733 166.913 248.003 165.592 246.169 164.426C254.797 165.445 250.035 155.676 250.035 155.676L250.054 155.677C251.271 156.102 254.748 157.13 256.428 155.81C258.483 154.197 260.181 161.089 260.181 161.089Z" fill="black"/>
<path d="M246.193 164.668C246.193 164.668 252.647 174.58 249.528 179.875C246.408 185.17 247.49 185.213 249.281 185.654C251.072 186.094 261.1 188.691 262.521 180.794C263.614 174.721 263.383 162.966 263.218 157.861C263.207 157.539 263.133 157.222 262.998 156.929C262.864 156.636 262.673 156.372 262.435 156.154C262.198 155.935 261.92 155.766 261.617 155.656C261.313 155.546 260.991 155.497 260.669 155.512L250.589 156.008C250.589 156.008 255.542 166.153 246.193 164.668Z" fill="#737A9D"/>
<path d="M82.7797 167.156L82.4703 181.066L85.4962 183.466L96.2821 183.927L98.3882 181.178L98.9571 167.846L95.9555 164.876L85.7398 164.44L82.7797 167.156Z" fill="#91C0DC"/>
<path opacity="0.2" d="M84.4692 167.512C84.4692 167.512 85.9129 180.358 83.8761 181.41L82.4702 181.066L82.7674 167.442L84.4692 167.512Z" fill="white"/>
<path d="M107.791 167.371L110.16 165.198L120.949 165.659L123.124 168.026C123.124 168.026 125.612 176.371 123.11 181.662L120.44 184.106L109.651 183.645L107.192 181.266L107.791 167.371Z" fill="#91C0DC"/>
<path opacity="0.1" d="M82.7797 167.156L82.4703 181.066L85.4962 183.466L96.2821 183.927L98.3882 181.178L98.9571 167.846L95.9555 164.876L85.7398 164.44L82.7797 167.156Z" fill="black"/>
<path opacity="0.1" d="M107.791 167.371L110.16 165.198L120.949 165.659L123.124 168.026C123.124 168.026 125.612 176.371 123.11 181.662L120.44 184.106L109.651 183.645L107.192 181.266L107.791 167.371Z" fill="black"/>
<path opacity="0.2" d="M110.316 168.047C110.316 168.047 112.164 178.072 109.747 181.375L107.192 181.266L107.785 167.371L110.316 168.047Z" fill="white"/>
<path d="M101.002 119.917C101.002 119.917 101.665 131.027 101.604 132.444C101.544 133.861 100.577 143.201 101.892 152.345C103.206 161.489 99.886 172.712 99.886 172.712L109.251 173.112L114.531 142.651L112.382 126.365L111.465 121.212L101.002 119.917Z" fill="#FFB9B9"/>
<path opacity="0.05" d="M101.002 119.917C101.002 119.917 101.665 131.027 101.604 132.444C101.544 133.861 100.577 143.201 101.892 152.345C103.206 161.489 99.886 172.712 99.886 172.712L109.251 173.112L114.531 142.651L112.382 126.365L111.465 121.212L101.002 119.917Z" fill="black"/>
<path d="M100.499 91.7682C100.499 91.7682 87.999 91.5187 97.0477 112.645C97.0477 112.645 99.2402 121.262 99.1796 122.682C99.119 124.102 111.89 124.644 113.359 123.287C114.829 121.93 111.644 110.145 111.874 104.754C112.104 99.364 108.802 90.4191 100.499 91.7682Z" fill="#CBCDDA"/>
<path opacity="0.05" d="M100.499 91.7682C100.499 91.7682 87.999 91.5187 97.0477 112.645C97.0477 112.645 99.2402 121.262 99.1796 122.682C99.119 124.102 111.89 124.644 113.359 123.287C114.829 121.93 111.644 110.145 111.874 104.754C112.104 99.364 108.802 90.4191 100.499 91.7682Z" fill="black"/>
<path d="M85.9763 78.9254C85.9763 78.9254 96.2692 91.0137 105.71 82.8934L103.293 112.908C103.293 112.908 89.2961 94.4131 79.0261 95.3943L85.9763 78.9254Z" fill="#FFB9B9"/>
<path opacity="0.1" d="M206.601 139.569C206.028 142.874 204.373 149.814 200.383 151.915C198.126 150.893 196.115 149.829 196.115 149.829L203.99 138.516C204.835 138.928 205.707 139.28 206.601 139.569Z" fill="black"/>
<path d="M93.2337 168.738L92.9243 182.648L95.947 185.051L106.733 185.511L108.842 182.759L109.411 169.428L106.409 166.461L96.1906 166.025L93.2337 168.738Z" fill="#91C0DC"/>
<path opacity="0.2" d="M94.9227 169.106C94.9227 169.106 96.3664 181.952 94.3296 183.004L92.9237 182.66L93.2211 169.033L94.9227 169.106Z" fill="white"/>
<path d="M124.502 168.936L126.871 166.763L137.66 167.223L139.835 169.59C139.835 169.59 142.323 177.936 139.822 183.226L137.157 185.671L126.368 185.21L123.91 182.831L124.502 168.936Z" fill="#91C0DC"/>
<path opacity="0.2" d="M127.031 169.612C127.031 169.612 128.879 179.637 126.462 182.94L123.906 182.831L124.499 168.936L127.031 169.612Z" fill="white"/>
<path d="M109.149 173.681L124.504 174.337C125.706 174.388 126.634 175.507 126.577 176.841C126.52 178.172 125.5 179.211 124.298 179.16L108.943 178.505C107.64 178.449 106.682 177.146 106.901 175.721C107.079 174.509 108.049 173.634 109.149 173.681Z" fill="#91C0DC"/>
<path opacity="0.1" d="M155.393 131.329C152.265 133.325 149.006 134.581 146.81 135.675C146.195 134.76 145.836 133.896 145.931 133.2C146.348 130.092 159.15 123.25 155.449 110.024C156.075 109.571 156.765 109.213 157.496 108.963C158.163 108.977 158.83 108.915 159.483 108.776C159.483 108.776 161.237 127.601 155.393 131.329Z" fill="black"/>
<path d="M92.8433 101.242C92.8433 101.242 96.9189 105.678 100.919 108.549C104.611 111.196 98.9003 85.8739 98.9003 85.8739C98.9003 85.8739 103.25 82.665 105.805 80.759C107.511 79.4738 109.642 78.8812 111.768 79.1002C117.433 79.7092 127.738 82.5404 135.644 94.4066C147.134 111.659 158.349 108.728 158.349 108.728C158.349 108.728 160.106 127.556 154.258 131.284C148.41 135.012 142.108 136.163 143.142 138.481C144.177 140.799 138.506 127.202 124.411 124.329C110.315 121.457 95.1288 110.863 95.6212 106.054C95.6244 106.051 91.6481 102.62 92.8433 101.242Z" fill="#CBCDDA"/>
<path opacity="0.1" d="M90.4851 86.5239C90.5187 85.7039 90.4815 84.8826 90.3737 84.069C86.735 82.0622 87.3694 79.5712 87.3694 79.5712L80.4101 96.0366C82.7074 95.8261 85.1924 96.574 87.6624 97.889C91.0942 95.4094 90.2921 91.0488 90.4851 86.5239Z" fill="black"/>
<path d="M77.4052 99.8769C85.2433 100.211 91.8683 94.1332 92.2025 86.3009C92.5367 78.4687 86.4536 71.8483 78.6154 71.5138C70.7773 71.1794 64.1523 77.2575 63.8181 85.0897C63.4839 92.922 69.567 99.5424 77.4052 99.8769Z" fill="#FFB9B9"/>
<path opacity="0.1" d="M64.9795 88.3424C64.6815 89.1722 64.2408 90.0205 63.4602 90.4377C62.512 90.9465 61.2474 90.621 60.4546 89.8774C59.6618 89.1339 59.2631 88.0553 59.0771 86.9858C58.8096 85.4374 58.9305 83.8469 59.4291 82.3566C59.8535 81.0941 60.5422 79.9354 60.8663 78.6378C61.2123 77.2577 61.1296 75.7946 61.5094 74.4221C62.0242 72.5617 63.3306 71.0406 64.6032 69.5859C65.0064 69.0271 65.5183 68.5553 66.1081 68.1987C66.698 67.8422 67.3538 67.6081 68.0363 67.5106L74.0528 65.9744C75.195 65.6456 76.3643 65.4187 77.5467 65.2965C79.0639 65.2064 80.5844 65.4053 82.0273 65.8827C83.178 66.2246 84.2605 66.7637 85.2267 67.4757C86.181 68.2494 87.0115 69.1642 87.6896 70.1884C90.6556 74.4253 92.1602 81.2136 95.2277 85.3901C93.9316 85.7298 92.7086 84.3568 91.4122 84.7027C91.2271 84.7732 91.0238 84.7808 90.8338 84.7243C90.648 84.6129 90.506 84.4413 90.4315 84.2381C89.3881 82.2221 87.6785 80.6292 85.5932 79.7299C84.0464 79.0683 81.9193 78.9807 80.9978 80.3855C80.3736 81.334 80.5555 82.573 80.6616 83.7039C80.7678 84.8348 80.6828 86.1735 79.7624 86.8285C79.2559 87.14 78.6747 87.3092 78.08 87.3184C75.2997 87.5625 72.5003 87.1676 69.8962 86.1638C68.9845 85.8163 68.0855 84.812 67.0952 85.0784C65.7581 85.4379 65.3755 87.2392 64.9795 88.3424Z" fill="black"/>
<path d="M64.6813 88.018C64.3834 88.8478 63.9426 89.6961 63.162 90.1133C62.2138 90.6221 60.9492 90.2966 60.1564 89.553C59.3636 88.8095 58.9649 87.7309 58.7789 86.6614C58.5114 85.113 58.6323 83.5225 59.1309 82.0322C59.5553 80.7697 60.244 79.611 60.5681 78.3134C60.9141 76.9333 60.8314 75.4702 61.2112 74.0977C61.726 72.2373 63.0323 70.7162 64.305 69.2615C64.7082 68.7027 65.2201 68.231 65.8099 67.8744C66.3998 67.5178 67.0556 67.2837 67.7381 67.1862L73.7546 65.65C74.8969 65.3223 76.0661 65.0964 77.2483 64.9752C78.7655 64.8851 80.2861 65.084 81.729 65.5614C82.8797 65.9033 83.9622 66.4424 84.9283 67.1544C85.8827 67.9281 86.7132 68.8429 87.3912 69.8671C90.3573 74.104 91.8619 80.8923 94.9294 85.0688C93.6333 85.4085 92.4103 84.0355 91.1139 84.3814C90.9287 84.4519 90.7254 84.4595 90.5355 84.403C90.3473 84.2926 90.203 84.1208 90.127 83.9165C89.0836 81.9005 87.374 80.3076 85.2887 79.4083C83.7419 78.7468 81.6148 78.6591 80.6933 80.0639C80.0691 81.0124 80.251 82.2515 80.3571 83.3823C80.4633 84.5132 80.3783 85.8519 79.4579 86.507C78.9514 86.8184 78.3702 86.9876 77.7755 86.9968C74.9952 87.2409 72.1958 86.846 69.5917 85.8422C68.68 85.4947 67.781 84.4905 66.7907 84.7568C65.4599 85.1135 65.0773 86.9148 64.6813 88.018Z" fill="#B96B6B"/>
<g opacity="0.1">
<path opacity="0.1" d="M99.8952 85.1418L98.9003 85.877C98.9003 85.877 102.248 100.718 102.159 106.488C104.211 106.026 100.978 90.1624 99.8952 85.1418Z" fill="black"/>
<path opacity="0.1" d="M154.907 129.037C149.062 132.766 142.756 133.916 143.791 136.234C144.825 138.553 139.155 124.955 125.06 122.083C111.837 119.386 97.653 109.897 96.3527 104.762C94.3033 102.854 92.8217 101.244 92.8217 101.244C91.6268 102.613 95.6029 106.051 95.6029 106.051C95.1136 110.859 110.3 121.453 124.393 124.325C138.485 127.198 144.161 140.796 143.124 138.477C142.086 136.159 148.389 134.999 154.24 131.28C155.913 130.213 156.962 127.909 157.611 125.163C156.987 126.892 156.113 128.277 154.907 129.037Z" fill="black"/>
</g>
<path d="M125.095 155.041C124.196 156.138 123.133 167.742 123.133 167.742C123.133 167.742 125.81 184.619 115.402 182.471C104.993 180.324 114.564 168.799 114.564 168.799L113.848 152.29C109.061 137.891 110.632 127.719 110.632 127.719L110.019 118.414L109.767 114.613L122.092 112.297C121.741 112.727 121.764 115.499 121.926 118.724C122.177 123.777 122.76 129.94 122.76 129.94C125.186 132.882 125.995 153.941 125.095 155.041Z" fill="#FFB9B9"/>
<path opacity="0.1" d="M110.685 86.2379C110.685 86.2379 98.1852 85.9884 107.234 107.115C107.234 107.115 109.426 115.731 109.366 117.151C109.305 118.571 122.076 119.113 123.546 117.756C125.015 116.4 121.83 104.615 122.06 99.2241C122.29 93.8337 118.988 84.8857 110.685 86.2379Z" fill="black"/>
<path opacity="0.1" d="M121.917 118.724C119.235 119.334 112.734 119.122 110.007 118.413L109.755 114.613L122.08 112.297C121.735 112.723 121.758 115.495 121.917 118.724Z" fill="black"/>
<path d="M110.118 86.2137C110.118 86.2137 97.618 85.9642 106.667 107.09C106.667 107.09 108.859 115.707 108.799 117.127C108.738 118.547 121.509 119.089 122.978 117.732C124.448 116.375 121.263 104.59 121.493 99.1999C121.723 93.8095 118.421 84.8615 110.118 86.2137Z" fill="#CBCDDA"/>
<g opacity="0.8">
<path opacity="0.8" d="M37.1613 182.996C37.1613 182.996 32.8564 181.331 30.5868 185.089C29.9876 186.108 29.6555 187.262 29.6213 188.443C29.5871 189.625 29.8518 190.796 30.391 191.848C31.6656 194.402 34.3727 197.76 39.7763 197.704C44.3613 197.656 46.0299 194.231 46.5814 191.005C46.7913 189.795 46.6869 188.551 46.2782 187.393C45.8695 186.235 45.1702 185.201 44.2473 184.391C43.3243 183.58 42.2085 183.019 41.0067 182.763C39.805 182.506 38.5575 182.562 37.3836 182.925L37.1613 182.996Z" fill="#91C0DC"/>
<path opacity="0.1" d="M31.3043 192.229C30.7651 191.177 30.5003 190.006 30.5345 188.825C30.5688 187.643 30.9008 186.489 31.5 185.47C33.7665 181.713 38.0745 183.378 38.0745 183.378L38.303 183.307C39.994 182.776 41.8225 182.895 43.4306 183.64C42.5494 183.063 41.5508 182.688 40.507 182.543C39.4632 182.398 38.4003 182.487 37.395 182.803L37.1665 182.873C37.1665 182.873 32.8616 181.208 30.592 184.966C29.9928 185.985 29.6607 187.138 29.6265 188.32C29.5923 189.501 29.857 190.672 30.3962 191.724C31.251 193.406 32.7085 195.434 35.129 196.608C33.4787 195.524 32.1562 194.01 31.3043 192.229Z" fill="white"/>
<path opacity="0.2" d="M34.826 184.748C34.826 184.748 36.3901 186.089 40.3747 184.985L34.826 184.748Z" fill="black"/>
<path opacity="0.8" d="M34.8751 175.493C34.8751 175.493 37.3287 183.127 37.0168 185.082L39.2245 184.945C39.2245 184.945 35.8066 178.199 36.8445 175.586L34.8751 175.493Z" fill="#91C0DC"/>
<path opacity="0.2" d="M34.8751 175.493C34.8751 175.493 37.3287 183.127 37.0168 185.082L39.2245 184.945C39.2245 184.945 35.8066 178.199 36.8445 175.586L34.8751 175.493Z" fill="black"/>
<path opacity="0.8" d="M46.1803 176.592C46.1803 176.592 41.9045 174.172 39.8714 175.934C37.8383 177.696 37.335 182.399 37.335 182.399C37.335 182.399 44.42 183.686 46.1803 176.592Z" fill="#91C0DC"/>
<path opacity="0.1" d="M46.1803 176.592C46.1803 176.592 41.9045 174.172 39.8714 175.934C37.8383 177.696 37.335 182.399 37.335 182.399C37.335 182.399 44.42 183.686 46.1803 176.592Z" fill="white"/>
<path opacity="0.8" d="M37.3355 182.386C37.3355 182.386 38.7158 176.962 46.1803 176.592" stroke="#91C0DC" stroke-miterlimit="10"/>
</g>
<path d="M55.311 190.587C55.311 190.587 51.006 188.922 48.7365 192.68C48.1373 193.699 47.8052 194.853 47.771 196.034C47.7367 197.216 48.0015 198.387 48.5407 199.439C49.8152 201.993 52.5223 205.352 57.926 205.295C62.5109 205.247 64.1795 201.822 64.731 198.596C64.9409 197.386 64.8366 196.143 64.4279 194.985C64.0192 193.827 63.3199 192.793 62.3969 191.982C61.4739 191.171 60.3582 190.611 59.1564 190.354C57.9546 190.098 56.7071 190.154 55.5332 190.517L55.311 190.587Z" fill="#91C0DC"/>
<path opacity="0.1" d="M49.4631 199.824C48.9239 198.772 48.6591 197.601 48.6933 196.419C48.7276 195.238 49.0596 194.084 49.6588 193.065C51.9253 189.307 56.2333 190.972 56.2333 190.972L56.4618 190.902C58.1528 190.371 59.9814 190.489 61.5894 191.235C60.7082 190.657 59.7096 190.283 58.6658 190.138C57.622 189.993 56.5591 190.081 55.5538 190.397L55.3253 190.468C55.3253 190.468 51.0204 188.803 48.7508 192.56C48.1516 193.579 47.8196 194.733 47.7853 195.914C47.7511 197.096 48.0159 198.267 48.5551 199.319C49.4098 201 50.8673 203.028 53.2878 204.202C51.6375 203.118 50.315 201.604 49.4631 199.824Z" fill="white"/>
<path opacity="0.2" d="M52.9849 192.34C52.9849 192.34 54.5489 193.681 58.5335 192.576L52.9849 192.34Z" fill="black"/>
<path d="M53.0311 183.078C53.0311 183.078 55.4847 190.712 55.1728 192.667L57.3805 192.53C57.3805 192.53 53.9626 185.784 55.0005 183.171L53.0311 183.078Z" fill="#91C0DC"/>
<path opacity="0.2" d="M53.0311 183.078C53.0311 183.078 55.4847 190.712 55.1728 192.667L57.3805 192.53C57.3805 192.53 53.9626 185.784 55.0005 183.171L53.0311 183.078Z" fill="black"/>
<path d="M64.3391 184.187C64.3391 184.187 60.0633 181.767 58.0302 183.529C55.9971 185.29 55.4938 189.993 55.4938 189.993C55.4938 189.993 62.579 191.277 64.3391 184.187Z" fill="#91C0DC"/>
<path opacity="0.1" d="M64.3391 184.187C64.3391 184.187 60.0633 181.767 58.0302 183.529C55.9971 185.29 55.4938 189.993 55.4938 189.993C55.4938 189.993 62.579 191.277 64.3391 184.187Z" fill="white"/>
<path d="M55.4937 189.993C55.4937 189.993 56.874 184.569 64.3385 184.199" stroke="#91C0DC" stroke-miterlimit="10"/>
<path d="M20.9307 171.247C20.9307 171.247 21.3796 170.788 20.5832 170.563L20.6167 169.777L21.1007 169.798C21.1408 168.848 20.8535 167.914 20.2869 167.15C19.7203 166.387 18.9086 165.841 17.9876 165.604L18.0282 164.652L18.1546 164.658L18.2072 163.425L15.0938 163.293L15.0412 164.525L15.1306 164.528L15.0894 165.493C14.1634 165.662 13.3224 166.14 12.7041 166.849C12.0858 167.558 11.727 168.456 11.6865 169.396L12.118 169.414L12.0858 170.169C12.0858 170.169 11.0418 170.609 12.0284 171.515C13.015 172.421 12.8272 173.058 12.8272 173.058C12.8272 173.058 12.3268 174.654 11.4576 174.833L10.8168 189.849C10.779 190.734 11.0946 191.597 11.694 192.25C12.2933 192.902 13.1275 193.29 14.0129 193.327L16.6516 193.44C17.5345 193.474 18.395 193.158 19.045 192.56C19.695 191.962 20.0815 191.131 20.1199 190.249L20.7608 175.23C20.7608 175.23 19.3016 174.035 19.6058 173.348C19.9955 172.616 20.4383 171.914 20.9307 171.247Z" fill="#91C0DC"/>
<path opacity="0.1" d="M146.621 193.604C217.157 196.614 274.517 194.864 274.738 189.696C274.958 184.528 217.956 177.898 147.419 174.889C76.8828 171.879 19.5229 173.628 19.3024 178.797C19.0818 183.965 76.0842 190.594 146.621 193.604Z" fill="#91C0DC"/>
<g opacity="0.5">
<g opacity="0.5">
<path opacity="0.5" d="M218.82 107H237.92C239.993 107 241.982 107.823 243.447 109.288C244.913 110.753 245.737 112.739 245.737 114.811V147.598H237.861H211.022V114.811C211.022 112.742 211.843 110.758 213.305 109.294C214.767 107.83 216.75 107.005 218.82 107Z" fill="#92B8CE"/>
<path opacity="0.5" d="M220.734 164.5L215.653 162.5V170.555V180.61H220.734V164.5Z" fill="#92B8CE"/>
<path opacity="0.5" d="M241.903 163.688H239.782L236.823 180.61H241.903V163.688Z" fill="#92B8CE"/>
</g>
<path opacity="0.5" d="M279.695 57.0001C280.934 57.0001 282.122 57.4919 282.998 58.3673C283.874 59.2427 284.366 60.4301 284.366 61.6681V191.465H275V61.6635C275.001 61.049 275.123 60.4406 275.359 59.8732C275.596 59.3059 275.942 58.7908 276.378 58.3575C276.814 57.9242 277.332 57.5813 277.901 57.3483C278.47 57.1154 279.08 56.997 279.695 57.0001Z" fill="#92B8CE"/>
<path opacity="0.5" d="M309.704 79.0148C312.284 79.0148 314.375 76.9248 314.375 74.3467C314.375 71.7686 312.284 69.6786 309.704 69.6786L152.672 69.6786C150.092 69.6786 148 71.7686 148 74.3467C148 76.9248 150.092 79.0148 152.672 79.0148L309.704 79.0148Z" fill="#92B8CE"/>
<path opacity="0.5" d="M172.485 60.4665C172.485 58.4467 170.846 56.8092 168.825 56.8092C166.803 56.8092 165.165 58.4467 165.165 60.4665V88.2177C165.165 90.2376 166.803 91.875 168.825 91.875C170.846 91.875 172.485 90.2376 172.485 88.2177V60.4665Z" fill="#92B8CE"/>
<path opacity="0.5" d="M165.164 63.747C165.164 61.7272 163.526 60.0898 161.504 60.0898C159.483 60.0898 157.844 61.7272 157.844 63.747V84.9418C157.844 86.9616 159.483 88.5991 161.504 88.5991C163.526 88.5991 165.164 86.9616 165.164 84.9418V63.747Z" fill="#92B8CE"/>
<path opacity="0.5" d="M289.886 88.2177C289.886 90.2376 291.525 91.875 293.546 91.875C295.568 91.875 297.206 90.2376 297.206 88.2177V60.4665C297.206 58.4466 295.568 56.8092 293.546 56.8092C291.525 56.8092 289.886 58.4466 289.886 60.4665V88.2177Z" fill="#92B8CE"/>
<path opacity="0.5" d="M297.206 84.9372C297.206 86.957 298.845 88.5945 300.866 88.5945C302.888 88.5945 304.527 86.957 304.527 84.9372V63.7424C304.527 61.7226 302.888 60.0851 300.866 60.0851C298.845 60.0851 297.206 61.7226 297.206 63.7424V84.9372Z" fill="#92B8CE"/>
<g style="mix-blend-mode:darken" opacity="0.5">
<path fill-rule="evenodd" clip-rule="evenodd" d="M181.975 62.3673C181.099 61.4918 179.911 61 178.672 61C177.433 61 176.246 61.4912 175.37 62.3657C174.494 63.2401 174.001 64.4263 174 65.6635V177.775C174.147 177.754 174.294 177.734 174.442 177.716C177.655 177.315 180.717 177.507 183.343 178.167V65.6681C183.343 64.4301 182.851 63.2427 181.975 62.3673ZM183.343 195.022C182.964 195.178 182.576 195.326 182.178 195.465H183.343V195.022Z" fill="#92B8CE"/>
</g>
</g>
<path d="M206.015 137.742C206.015 137.742 204.572 151.603 197.711 152.446L156.881 143.273C154.899 142.825 153.058 141.899 151.518 140.576C149.912 139.199 147.95 137.338 146.814 135.66C146.198 134.745 145.84 133.881 145.935 133.184C146.351 130.076 159.154 123.235 155.453 110.008C156.079 109.555 156.768 109.198 157.499 108.948C161.117 107.624 169.344 106.889 180.632 119.606C180.632 119.621 201.734 138.139 206.015 137.742Z" fill="#4C4C78"/>
</svg>
