<svg width="239" height="161" viewBox="0 0 239 161" fill="none" xmlns="http://www.w3.org/2000/svg">
<g clip-path="url(#clip0)">
<path d="M224.77 39.2683C225.463 38.3878 226.092 37.4593 226.654 36.49L213.362 34.306L227.738 34.4118C229.118 31.4071 229.871 28.152 229.95 24.8458C230.03 21.5396 229.435 18.2519 228.201 15.1841L208.915 25.2032L226.702 12.1108C225.035 9.22746 222.793 6.71867 220.116 4.74068C217.439 2.76269 214.384 1.35786 211.142 0.61372C207.899 -0.130424 204.538 -0.197951 201.268 0.415347C197.998 1.02864 194.889 2.30963 192.135 4.17851C189.381 6.04738 187.041 8.46412 185.26 11.2782C183.479 14.0922 182.296 17.2433 181.785 20.5352C181.273 23.827 181.444 27.1891 182.286 30.4121C183.129 33.635 184.625 36.6497 186.681 39.2683C185.605 40.6397 184.678 42.123 183.918 43.6925L201.172 52.6692L182.776 46.4866C181.483 50.3104 181.163 54.3966 181.845 58.3755C182.526 62.3543 184.188 66.1002 186.679 69.274C184.104 72.5534 182.416 76.4421 181.779 80.565C181.142 84.6879 181.577 88.9056 183.042 92.8111C184.507 96.7165 186.953 100.178 190.143 102.861C193.333 105.544 197.161 107.358 201.255 108.128C200.934 109.033 200.772 109.987 200.776 110.947C200.762 112.368 201.126 113.767 201.831 115C201.139 116.238 200.776 117.633 200.776 119.052C200.776 120.471 201.139 121.867 201.831 123.105C201.139 124.344 200.776 125.739 200.776 127.158C200.776 128.577 201.139 129.972 201.831 131.21C201.139 132.449 200.776 133.844 200.776 135.263C200.776 136.682 201.139 138.077 201.831 139.316C201.126 140.549 200.762 141.948 200.776 143.368C200.776 147.032 203.04 149.999 205.835 149.999C208.63 149.999 210.894 147.032 210.894 143.368C210.907 141.948 210.542 140.549 209.837 139.316C210.53 138.078 210.894 136.682 210.894 135.263C210.894 133.844 210.53 132.448 209.837 131.21C210.53 129.972 210.894 128.577 210.894 127.158C210.894 125.739 210.53 124.343 209.837 123.105C210.53 121.867 210.894 120.472 210.894 119.052C210.894 117.633 210.53 116.238 209.837 115C210.542 113.767 210.907 112.368 210.894 110.947C210.897 109.973 210.73 109.006 210.401 108.09C214.472 107.288 218.268 105.453 221.428 102.76C224.587 100.068 227.003 96.6086 228.445 92.7133C229.887 88.818 230.307 84.6173 229.663 80.5133C229.02 76.4092 227.335 72.5393 224.77 69.274C228.13 64.997 229.957 59.7131 229.957 54.2712C229.957 48.8293 228.13 43.5453 224.77 39.2683Z" fill="#F2F2F2"/>
<path d="M144.642 65.093C144.18 64.5035 143.76 63.8829 143.383 63.2355L152.271 61.7743L142.659 61.8441C141.736 59.8351 141.233 57.6587 141.18 55.4481C141.126 53.2376 141.524 51.0393 142.349 48.9881L155.247 55.6885L143.354 46.9324C144.466 45.0006 145.964 43.3191 147.755 41.9929C149.545 40.6668 151.589 39.7244 153.76 39.2246C155.93 38.7249 158.18 38.6785 160.369 39.0883C162.558 39.4982 164.639 40.3555 166.482 41.6067C168.326 42.8579 169.892 44.4762 171.083 46.3606C172.274 48.2449 173.064 50.3549 173.404 52.5588C173.744 54.7626 173.627 57.0131 173.061 59.1697C172.494 61.3263 171.489 63.3427 170.109 65.093C170.83 66.0095 171.449 67.0014 171.957 68.0515L160.419 74.054L172.726 69.918C173.591 72.475 173.805 75.2079 173.349 77.8687C172.893 80.5296 171.781 83.0344 170.113 85.1561C171.836 87.3486 172.965 89.949 173.392 92.706C173.819 95.463 173.528 98.2836 172.549 100.895C171.569 103.507 169.934 105.822 167.8 107.616C165.667 109.411 163.107 110.624 160.369 111.138C160.583 111.744 160.691 112.381 160.688 113.023C160.697 113.97 160.453 114.903 159.982 115.725C160.445 116.553 160.688 117.486 160.688 118.434C160.688 119.383 160.445 120.316 159.982 121.144C160.445 121.972 160.688 122.906 160.688 123.855C160.688 124.804 160.445 125.737 159.982 126.566C160.445 127.393 160.688 128.326 160.688 129.275C160.688 130.224 160.445 131.157 159.982 131.985C160.453 132.807 160.697 133.739 160.688 134.687C160.688 137.134 159.175 139.12 157.316 139.12C155.456 139.12 153.943 137.134 153.943 134.687C153.935 133.739 154.179 132.807 154.649 131.985C154.186 131.157 153.943 130.224 153.943 129.275C153.943 128.326 154.186 127.393 154.649 126.566C154.186 125.737 153.943 124.804 153.943 123.855C153.943 122.906 154.186 121.972 154.649 121.144C154.186 120.316 153.943 119.383 153.943 118.434C153.943 117.486 154.186 116.553 154.649 115.725C154.179 114.903 153.935 113.97 153.943 113.023C153.941 112.371 154.053 111.724 154.274 111.111C151.552 110.575 149.013 109.348 146.9 107.548C144.787 105.748 143.171 103.435 142.207 100.83C141.242 98.2257 140.961 95.4167 141.391 92.6722C141.821 89.9278 142.947 87.3398 144.662 85.1561C142.416 82.296 141.195 78.763 141.195 75.1246C141.195 71.4861 142.416 67.9531 144.662 65.093H144.642Z" fill="#F2F2F2"/>
<path d="M126.392 161C188.584 161 239 154.649 239 146.816C239 138.982 188.584 132.631 126.392 132.631C64.2007 132.631 13.7845 138.982 13.7845 146.816C13.7845 154.649 64.2007 161 126.392 161Z" fill="#F2F2F2"/>
<path d="M160.974 114.912C160.974 115.362 160.96 115.812 160.936 116.245C160.936 116.31 160.936 116.373 160.936 116.438C160.816 118.34 160.471 120.222 159.908 122.042C159.892 122.099 159.872 122.159 159.854 122.216C159.278 124.028 158.504 125.771 157.547 127.414L157.451 127.577C156.423 129.308 155.217 130.927 153.853 132.408L153.714 132.557C152.181 134.204 150.484 135.688 148.649 136.988C148.586 137.035 148.52 137.082 148.457 137.125C146.534 138.473 144.489 139.637 142.349 140.601C142.054 140.734 141.757 140.865 141.449 140.993L141.18 141.106C137.904 142.456 134.473 143.388 130.965 143.882L130.536 143.94C128.567 144.201 126.582 144.331 124.596 144.33C109.874 144.33 97.1932 137.256 91.4712 127.077C91.086 126.397 90.7345 125.703 90.4167 124.996L90.2863 124.706C89.0716 121.939 88.3802 118.97 88.2471 115.95C88.2471 115.876 88.2471 115.803 88.2471 115.725C88.2471 115.454 88.2358 115.182 88.2358 114.91C88.2349 112.805 88.5101 110.709 89.0542 108.675C89.07 108.612 89.0857 108.551 89.1037 108.491C89.6755 106.419 90.5065 104.428 91.5769 102.565C91.6061 102.513 91.6353 102.459 91.6668 102.407C92.7216 100.603 93.97 98.919 95.39 97.3862C95.4273 97.3398 95.4671 97.2954 95.5092 97.2534L95.5272 97.2354C95.7048 97.0462 95.8847 96.8549 96.069 96.668L96.3456 96.3888C96.5277 96.2064 96.7143 96.0285 96.9009 95.8484H96.9122C97.3618 95.4251 97.8197 95.0146 98.2859 94.6169C98.9334 94.0675 99.6102 93.5384 100.309 93.0296L100.46 92.917C102.316 91.5911 104.29 90.4373 106.355 89.4699C106.416 89.4407 106.479 89.4091 106.54 89.3844C108.867 88.3082 111.29 87.4534 113.777 86.8312C113.856 86.8087 113.932 86.7907 114.002 86.7726C117.082 86.0198 120.234 85.6008 123.404 85.5231C123.51 85.5231 123.616 85.5231 123.724 85.5231C124.011 85.5231 124.301 85.5118 124.591 85.5118C139.181 85.5118 151.765 92.4622 157.561 102.488C157.613 102.578 157.662 102.668 157.714 102.756L157.939 103.15C158.062 103.375 158.179 103.6 158.296 103.839C158.35 103.947 158.402 104.053 158.454 104.161C158.485 104.224 158.519 104.287 158.548 104.352C159.396 106.119 160.032 107.979 160.443 109.896C160.461 109.97 160.475 110.042 160.491 110.121C160.811 111.698 160.973 113.303 160.974 114.912Z" fill="#91C0DC"/>
<g opacity="0.2">
<path opacity="0.2" d="M157.721 102.736C156.058 102.105 154.41 101.449 152.774 100.768C142.57 96.5377 132.749 91.4326 123.422 85.5096H123.742C134.435 92.2684 145.769 97.9518 157.579 102.477C157.622 102.565 157.671 102.648 157.721 102.736Z" fill="#F2F2F2"/>
</g>
<g opacity="0.2">
<path opacity="0.2" d="M160.488 110.094C156.441 108.743 152.437 107.242 148.475 105.591C138.166 101.32 128.248 96.1564 118.836 90.1589C117.061 89.0287 115.375 87.9142 113.777 86.8154L114.002 86.7592C115.562 87.8264 117.211 88.9131 118.948 90.0193C131.933 98.2819 145.864 104.949 160.441 109.878C160.459 109.95 160.472 110.022 160.488 110.094Z" fill="#F2F2F2"/>
</g>
<g opacity="0.2">
<path opacity="0.2" d="M160.936 116.245C160.936 116.31 160.936 116.375 160.936 116.438C155.286 114.714 149.707 112.711 144.197 110.431C133.885 106.157 123.966 100.99 114.552 94.9884C111.573 93.0904 108.839 91.2306 106.362 89.4565L106.546 89.3687C109.004 91.1271 111.717 92.971 114.663 94.8488C129.064 104.017 144.627 111.213 160.936 116.245Z" fill="#F2F2F2"/>
</g>
<g opacity="0.2">
<path opacity="0.2" d="M159.897 122.04C159.881 122.101 159.861 122.159 159.843 122.218C153.067 120.281 146.407 117.959 139.896 115.261C129.586 110.988 119.668 105.822 110.256 99.8201C106.555 97.4628 103.234 95.1618 100.309 93.0161L100.46 92.9058C103.383 95.0424 106.683 97.3322 110.366 99.6805C125.726 109.462 142.406 116.992 159.897 122.04Z" fill="#F2F2F2"/>
</g>
<g opacity="0.2">
<path opacity="0.2" d="M157.536 127.414L157.439 127.577C150.013 125.541 142.721 123.041 135.606 120.093C125.296 115.818 115.377 110.652 105.964 104.652C101.998 102.123 98.4635 99.658 95.3967 97.3817C95.4327 97.3389 95.4732 97.2939 95.5159 97.2511C98.5871 99.5251 102.119 101.979 106.083 104.512C117.858 112.021 135.493 121.362 157.536 127.414Z" fill="#F2F2F2"/>
</g>
<g opacity="0.2">
<path opacity="0.2" d="M153.844 132.408L153.705 132.557C146.086 130.496 138.608 127.946 131.316 124.924C121.006 120.651 111.087 115.484 101.674 109.484C97.9148 107.083 94.5423 104.744 91.5768 102.565C91.606 102.513 91.6352 102.461 91.6667 102.409C94.6323 104.591 98.0138 106.937 101.784 109.342C113.673 116.922 131.523 126.363 153.844 132.408Z" fill="#F2F2F2"/>
</g>
<g opacity="0.2">
<path opacity="0.2" d="M148.64 136.988C148.577 137.035 148.511 137.082 148.448 137.125C141.164 135.11 134.01 132.649 127.026 129.756C116.716 125.483 106.797 120.316 97.3843 114.315C94.3491 112.379 91.5634 110.488 89.0475 108.675C89.0632 108.614 89.079 108.554 89.0969 108.493C91.6308 110.31 94.4345 112.224 97.4967 114.176C109.222 121.651 126.745 130.934 148.64 136.988Z" fill="#F2F2F2"/>
</g>
<g opacity="0.2">
<path opacity="0.2" d="M141.447 140.993L141.177 141.106C134.921 139.261 128.767 137.085 122.741 134.588C116.895 132.167 111.137 129.436 105.521 126.426C101.294 124.156 97.1534 121.73 93.0989 119.147C91.4036 118.066 89.7893 117 88.256 115.95C88.256 115.875 88.256 115.803 88.256 115.725C89.8268 116.798 91.4823 117.891 93.2225 119.003C96.9166 121.36 101.188 123.895 105.991 126.455C117.29 132.487 129.169 137.357 141.447 140.993Z" fill="#F2F2F2"/>
</g>
<g opacity="0.2">
<path opacity="0.2" d="M130.965 143.882L130.536 143.94C126.463 142.576 122.431 141.068 118.44 139.417C109.803 135.837 101.44 131.626 93.4182 126.82C92.4169 126.22 91.4202 125.612 90.4279 124.996L90.2975 124.706C91.3902 125.387 92.5278 126.082 93.7105 126.789C105.482 133.805 117.972 139.535 130.965 143.882Z" fill="#F2F2F2"/>
</g>
<path opacity="0.1" d="M142.34 140.601C142.045 140.734 141.748 140.865 141.44 140.993L141.171 141.106C137.898 142.455 134.47 143.388 130.965 143.882L130.536 143.94C128.567 144.201 126.582 144.331 124.596 144.33C109.874 144.33 97.1932 137.256 91.4712 127.077C92.1142 126.978 92.7595 126.894 93.407 126.82L93.6993 126.789C95.4395 126.604 97.1932 126.5 98.9424 126.426C101.131 126.311 103.324 126.311 105.512 126.426C105.665 126.426 105.818 126.444 105.962 126.458C107.453 126.563 108.934 126.78 110.393 127.106C114.834 128.115 118.903 130.305 122.937 132.42C129.167 135.675 135.536 138.85 142.34 140.601Z" fill="black"/>
<path opacity="0.1" d="M157.57 102.468C151.774 92.4419 139.19 85.4916 124.6 85.4916C124.31 85.4916 124.02 85.4916 123.733 85.4916H123.413C120.243 85.5682 117.091 85.9872 114.011 86.7412L113.786 86.7974C111.3 87.4217 108.877 88.2764 106.549 89.3506L106.364 89.4384C104.298 90.4057 102.325 91.5603 100.469 92.8877L100.318 92.9981C98.5908 94.2451 96.9892 95.6583 95.5362 97.2174C95.3473 99.1379 95.0235 101.018 94.1872 102.749C93.5981 103.965 92.9888 105.136 93.8229 106.352C94.3828 107.169 95.5946 108.205 96.6266 108.245C99.4618 108.36 101.038 104.564 102.373 102.673C104.419 99.7773 107.452 97.7667 110.416 95.8237C111.681 94.9929 112.961 94.1553 114.388 93.6577C115.592 93.2676 116.845 93.0471 118.109 93.0026C121.556 92.8089 125.079 93.3335 128.227 94.7632C131.824 96.3956 135.017 99.2099 138.943 99.5994C140.721 99.7751 142.54 99.4306 144.282 99.8381C147.378 100.565 149.525 103.49 152.538 104.512C154.487 105.174 156.585 104.963 158.568 104.314C158.312 103.774 158.037 103.242 157.743 102.718C157.671 102.648 157.622 102.565 157.57 102.468Z" fill="black"/>
<path d="M69.3926 113.75C68.3269 114.876 67.1308 115.864 66.0313 116.956C61.9596 121.009 59.3493 126.275 55.689 130.69C54.702 131.881 53.6295 133.025 52.8943 134.385C52.1591 135.745 51.7904 137.4 52.3165 138.854C52.7662 140.102 53.8027 141.036 54.8099 141.898C55.4312 142.469 56.1136 142.97 56.8446 143.391C58.5354 144.292 60.5364 144.341 62.452 144.37C63.5087 144.386 64.797 144.267 65.2489 143.31C63.5366 142.493 61.9594 141.418 60.5724 140.122C59.7787 139.379 59.03 138.528 58.7085 137.49C58.1599 135.72 58.9716 133.793 60.1205 132.341C61.2694 130.888 62.751 129.724 63.8729 128.252C64.9948 126.78 65.7188 125.089 67.0701 123.886C68.0054 123.056 69.1678 122.535 70.2177 121.844C71.7511 120.833 73.0169 119.473 74.2647 118.127L80.8973 110.983C81.0573 110.846 81.1672 110.66 81.2098 110.454C81.2368 110.186 81.0389 109.952 80.8501 109.758C79.4067 108.274 76.6862 105.669 74.7031 107.624C72.7921 109.506 71.243 111.796 69.3926 113.75Z" fill="#A0616A"/>
<path opacity="0.1" d="M69.3926 113.75C68.3269 114.876 67.1308 115.864 66.0313 116.956C61.9596 121.009 59.3493 126.275 55.689 130.69C54.702 131.881 53.6295 133.025 52.8943 134.385C52.1591 135.745 51.7904 137.4 52.3165 138.854C52.7662 140.102 53.8027 141.036 54.8099 141.898C55.4312 142.469 56.1136 142.97 56.8446 143.391C58.5354 144.292 60.5364 144.341 62.452 144.37C63.5087 144.386 64.797 144.267 65.2489 143.31C63.5366 142.493 61.9594 141.418 60.5724 140.122C59.7787 139.379 59.03 138.528 58.7085 137.49C58.1599 135.72 58.9716 133.793 60.1205 132.341C61.2694 130.888 62.751 129.724 63.8729 128.252C64.9948 126.78 65.7188 125.089 67.0701 123.886C68.0054 123.056 69.1678 122.535 70.2177 121.844C71.7511 120.833 73.0169 119.473 74.2647 118.127L80.8973 110.983C81.0573 110.846 81.1672 110.66 81.2098 110.454C81.2368 110.186 81.0389 109.952 80.8501 109.758C79.4067 108.274 76.6862 105.669 74.7031 107.624C72.7921 109.506 71.243 111.796 69.3926 113.75Z" fill="black"/>
<path d="M78.8715 100.763C80.2092 100.48 81.6504 101.194 82.9432 100.75C83.6761 100.498 84.236 99.9124 84.7643 99.345L86.9227 97.0417C87.532 96.3911 88.1526 95.7269 88.528 94.9163C88.8608 94.2004 88.9777 93.4101 89.1396 92.6356C89.5353 90.6542 90.212 88.6234 91.6982 87.259C93.5508 85.5523 96.4062 85.2326 98.7849 86.0477C101.164 86.8627 103.099 88.6819 104.523 90.7623C103.25 92.2933 101.825 93.7073 100.554 95.2383C100.148 95.7744 99.671 96.2524 99.1357 96.659C98.5433 97.0208 97.9061 97.3032 97.2403 97.4988C94.9538 98.3093 92.5188 99.4824 91.5768 101.723C91.2485 102.502 91.1271 103.35 90.9473 104.177C90.601 105.739 89.9692 107.286 88.8271 108.405C87.6849 109.524 85.9605 110.136 84.4383 109.652C82.7543 109.117 81.7223 107.464 80.8545 105.924C79.9318 104.316 79.2629 102.576 78.8715 100.763Z" fill="#A0616A"/>
<path opacity="0.1" d="M78.8715 100.763C80.2092 100.48 81.6504 101.194 82.9432 100.75C83.6761 100.498 84.236 99.9124 84.7643 99.345L86.9227 97.0417C87.532 96.3911 88.1526 95.7269 88.528 94.9163C88.8608 94.2004 88.9777 93.4101 89.1396 92.6356C89.5353 90.6542 90.212 88.6234 91.6982 87.259C93.5508 85.5523 96.4062 85.2326 98.7849 86.0477C101.164 86.8627 103.099 88.6819 104.523 90.7623C103.25 92.2933 101.825 93.7073 100.554 95.2383C100.148 95.7744 99.671 96.2524 99.1357 96.659C98.5433 97.0208 97.9061 97.3032 97.2403 97.4988C94.9538 98.3093 92.5188 99.4824 91.5768 101.723C91.2485 102.502 91.1271 103.35 90.9473 104.177C90.601 105.739 89.9692 107.286 88.8271 108.405C87.6849 109.524 85.9605 110.136 84.4383 109.652C82.7543 109.117 81.7223 107.464 80.8545 105.924C79.9318 104.316 79.2629 102.576 78.8715 100.763Z" fill="black"/>
<path d="M137.443 91.8205C145.892 94.8488 154.292 98.4354 161.275 104.091C164.472 106.683 167.321 109.673 170.361 112.449C171.952 113.903 173.596 115.297 175.24 116.693L186.906 126.599C188.35 127.826 189.8 129.056 191.403 130.082C195.173 132.51 199.67 133.743 203.362 136.353C203.355 137.7 203.575 139.039 204.014 140.313C204.181 140.782 204.497 141.184 204.914 141.456C205.33 141.728 205.824 141.855 206.32 141.82C212.135 141.484 218.03 144.31 223.887 143.598C224.056 143.58 224.218 143.522 224.361 143.431C224.504 143.339 224.624 143.215 224.712 143.069C225.105 142.38 224.433 141.736 223.844 141.324L215.892 135.749C214.581 134.831 213.27 133.912 211.935 133.032C207.105 129.853 201.947 127.153 197.471 123.504C196.516 122.725 195.596 121.905 194.674 121.083C189.8 116.747 184.923 112.406 180.303 107.799C173.587 101.101 167.235 93.6285 160.578 86.8717C159.945 86.1978 159.263 85.5724 158.537 85.0007C157.826 84.494 157.082 84.0374 156.309 83.6341L147.857 78.9847C146.578 78.28 145.159 77.5528 143.731 77.8297C143.378 77.7425 143.008 77.7441 142.655 77.8345C142.302 77.9248 141.977 78.1011 141.708 78.3476C141.164 78.8497 140.809 79.5138 140.449 80.1645C139.979 80.9524 139.609 81.7957 139.347 82.6749C139.046 83.8705 139.145 85.1516 138.796 86.3269C138.571 87.1036 138.153 87.8129 137.87 88.5784C137.499 89.6163 137.353 90.7217 137.443 91.8205Z" fill="#A0616A"/>
<path opacity="0.1" d="M137.443 91.8205C145.892 94.8488 154.292 98.4354 161.275 104.091C164.472 106.683 167.321 109.673 170.361 112.449C171.952 113.903 173.596 115.297 175.24 116.693L186.906 126.599C188.35 127.826 189.8 129.056 191.403 130.082C195.173 132.51 199.67 133.743 203.362 136.353C203.355 137.7 203.575 139.039 204.014 140.313C204.181 140.782 204.497 141.184 204.914 141.456C205.33 141.728 205.824 141.855 206.32 141.82C212.135 141.484 218.03 144.31 223.887 143.598C224.056 143.58 224.218 143.522 224.361 143.431C224.504 143.339 224.624 143.215 224.712 143.069C225.105 142.38 224.433 141.736 223.844 141.324L215.892 135.749C214.581 134.831 213.27 133.912 211.935 133.032C207.105 129.853 201.947 127.153 197.471 123.504C196.516 122.725 195.596 121.905 194.674 121.083C189.8 116.747 184.923 112.406 180.303 107.799C173.587 101.101 167.235 93.6285 160.578 86.8717C159.945 86.1978 159.263 85.5724 158.537 85.0007C157.826 84.494 157.082 84.0374 156.309 83.6341L147.857 78.9847C146.578 78.28 145.159 77.5528 143.731 77.8297C143.378 77.7425 143.008 77.7441 142.655 77.8345C142.302 77.9248 141.977 78.1011 141.708 78.3476C141.164 78.8497 140.809 79.5138 140.449 80.1645C139.979 80.9524 139.609 81.7957 139.347 82.6749C139.046 83.8705 139.145 85.1516 138.796 86.3269C138.571 87.1036 138.153 87.8129 137.87 88.5784C137.499 89.6163 137.353 90.7217 137.443 91.8205Z" fill="black"/>
<path d="M80.1147 118.273C85.3685 118.273 89.6274 114.008 89.6274 108.747C89.6274 103.486 85.3685 99.2212 80.1147 99.2212C74.861 99.2212 70.6021 103.486 70.6021 108.747C70.6021 114.008 74.861 118.273 80.1147 118.273Z" fill="#A0616A"/>
<path d="M138.005 74.3489C139.334 74.3714 140.842 74.475 141.679 75.5084C142.515 76.5419 142.326 77.9581 142.115 79.2324C141.454 83.2603 140.766 87.3603 138.927 91.0032C138.798 91.3319 138.569 91.6116 138.272 91.8025C137.744 92.0749 137.117 91.7552 136.611 91.4423C132.926 89.1503 129.241 86.6826 125.041 85.5884C124.788 85.5558 124.555 85.4317 124.387 85.2394C124.329 85.1186 124.296 84.9875 124.29 84.8537C124.283 84.72 124.303 84.5863 124.348 84.4604C124.767 82.5939 125.295 80.7499 125.623 78.8632C125.821 77.7374 125.455 75.0356 126.451 74.3377C127.505 73.5947 130.543 74.2228 131.79 74.2431L138.005 74.3489Z" fill="#A0616A"/>
<path d="M142.479 92.9418C150.928 95.97 159.328 99.5567 166.3 105.21C169.497 107.804 172.346 110.794 175.386 113.57C176.977 115.024 178.621 116.418 180.265 117.812L191.931 127.718C193.375 128.943 194.825 130.175 196.428 131.199C200.214 133.635 204.711 134.865 208.389 137.463C208.382 138.811 208.602 140.151 209.041 141.425C209.209 141.894 209.525 142.295 209.941 142.567C210.358 142.839 210.852 142.967 211.348 142.932C217.162 142.594 223.057 145.422 228.914 144.71C229.083 144.692 229.246 144.634 229.389 144.542C229.532 144.449 229.652 144.325 229.739 144.179C230.133 143.504 229.46 142.846 228.871 142.434L220.919 136.862C219.608 135.943 218.297 135.024 216.962 134.144C212.141 130.965 206.984 128.265 202.507 124.618C201.552 123.839 200.632 123.017 199.71 122.198C194.836 117.861 189.959 113.52 185.337 108.914C178.623 102.216 172.272 94.743 165.614 87.975C164.978 87.3099 164.293 86.6929 163.566 86.1287C162.855 85.6236 162.111 85.1677 161.338 84.7643L152.887 80.115C151.607 79.4103 150.189 78.683 148.761 78.96C148.407 78.8719 148.037 78.8728 147.684 78.9628C147.331 79.0528 147.006 79.2289 146.737 79.4756C146.193 79.9776 145.838 80.6441 145.478 81.2948C145.009 82.082 144.639 82.9245 144.377 83.8029C144.075 84.9985 144.174 86.2796 143.826 87.4571C143.601 88.2339 143.183 88.9431 142.9 89.7086C142.531 90.7442 142.388 91.8464 142.479 92.9418Z" fill="#A0616A"/>
<path d="M145.283 93.6397L145.55 89.7424C145.627 88.6527 145.703 87.5494 146.038 86.5115C146.418 85.334 147.111 84.287 147.814 83.2693C148.19 82.6759 148.644 82.1359 149.163 81.664C149.93 81.0178 150.922 80.6666 151.637 79.9664C151.841 79.766 152.032 79.4711 151.911 79.2121C151.855 79.1154 151.778 79.0324 151.686 78.969C149.923 77.5213 147.81 76.5802 145.723 75.6548L141.78 73.9076C140.121 76.1591 138.432 78.4804 137.578 81.1507C137.449 81.6251 137.287 82.09 137.094 82.5421C136.588 83.5981 135.628 84.3681 135.019 85.3677C134.446 86.3089 134.207 87.4098 133.98 88.4883C133.845 89.121 133.715 89.7964 133.942 90.4021C134.194 91.0775 134.841 91.5143 135.431 91.9083C138.041 93.6217 140.797 95.3891 143.911 95.6323C144.482 95.6751 145.242 95.961 145.424 95.4072C145.553 95.0357 145.253 94.0945 145.283 93.6397Z" fill="#3F3D56"/>
<path d="M67.3578 104.591C66.373 105.913 67.034 107.838 68.0548 109.132C69.0755 110.427 70.4403 111.512 71.0113 113.059C72.3806 116.758 68.5607 120.489 68.6911 124.424C68.808 127.932 71.9039 130.474 74.5367 132.804C80.1306 137.758 84.9105 144.661 84.281 152.118C86.8257 151.371 89.0241 149.747 90.4864 147.532C91.3404 149.408 91.7011 151.472 91.5341 153.527C97.3978 149.508 100.737 142.078 99.853 135.02C99.4325 131.679 98.1465 128.421 98.3466 125.062C98.4545 123.24 98.9963 121.477 99.3876 119.694C99.8859 117.395 100.135 115.049 100.13 112.696C100.13 110.013 99.6326 107.032 97.5192 105.381C95.7205 103.979 93.2474 103.931 90.9676 103.943C88.5596 103.958 86.1516 103.97 83.7481 104.12C81.2952 104.274 78.7658 105.084 76.3511 105.145C73.6621 105.212 69.8737 101.214 67.3578 104.591Z" fill="#3F3D56"/>
<path d="M103.311 86.9686C101.721 87.4939 100.289 88.4133 99.1492 89.6411C98.4319 90.4201 97.8384 91.3094 97.0942 92.0637C96.2083 92.9643 95.1269 93.6397 94.0904 94.3602C92.1096 95.7336 90.2548 97.2759 88.4021 98.8159L79.2739 106.403C77.8462 107.59 76.4185 108.779 75.0718 110.058C73.4103 111.634 71.8769 113.354 70.103 114.806C69.0642 115.657 67.9468 116.416 66.9935 117.364C66.0942 118.264 65.3657 119.302 64.6283 120.331C61.6241 124.507 58.3967 128.518 54.9604 132.345C53.5013 133.973 51.9926 135.576 50.2187 136.848C46.5404 139.503 43.748 143.477 40.5149 146.662C40.2406 146.933 39.9393 147.318 40.108 147.667C40.2085 147.834 40.3696 147.956 40.5576 148.007C42.9229 148.889 44.9599 145.046 47.424 145.591C48.5482 145.838 49.2384 146.903 50.0433 147.716C50.8482 148.529 52.2287 149.128 53.0696 148.351C52.7815 146.09 53.0748 143.793 53.9217 141.678C55.2999 138.253 58.0339 135.554 60.9523 133.293C63.8706 131.033 67.0475 129.105 69.7882 126.631C74.386 122.481 77.745 116.821 83.1995 113.892C85.3354 112.744 87.6962 112.073 89.8253 110.897C93.9465 108.614 96.8289 104.593 99.0817 100.457C99.347 99.8901 99.7057 99.3718 100.143 98.924C100.613 98.5533 101.136 98.2551 101.694 98.0392C104.591 96.7003 107.191 94.7932 109.339 92.4307C108.664 91.9466 108.032 91.4288 107.36 90.9425C106.813 90.5797 106.312 90.1509 105.869 89.6659C105.42 89.1345 105.127 88.4973 104.745 87.9164C104.363 87.3356 103.963 87.178 103.311 86.9686Z" fill="#A0616A"/>
<path d="M127.874 87.6643C127.28 87.1869 127.26 86.3134 127.289 85.5411C127.387 83.1725 127.483 80.8047 127.577 78.4376C127.642 76.7693 127.802 74.9005 129.059 73.8063C125.424 73.0753 121.759 72.5147 118.064 72.1244C116.599 71.9691 115.112 71.8407 113.651 72.0546C111.89 72.3113 110.24 73.0498 108.617 73.7815C106.818 74.5921 105.008 75.4094 103.396 76.5464C102.776 77.0266 102.129 77.4716 101.458 77.8792C100.235 78.5547 98.8299 78.7798 97.5124 79.2301C94.468 80.2676 91.9226 82.4101 90.3784 85.2348C88.8342 88.0595 88.4034 91.3613 89.1711 94.4885C89.6208 93.3245 89.9355 92.1065 90.4616 90.974C90.9877 89.8415 91.7634 88.772 92.8674 88.1934C94.0185 87.5945 95.408 87.599 96.6603 87.9434C97.9126 88.2879 99.039 88.9521 100.163 89.6231C102.668 91.1428 105.226 92.917 106.416 95.594C108.889 93.7523 111.418 91.9916 113.896 90.1409C114.971 89.3416 116.061 88.5356 117.307 88.0515C118.944 87.4143 120.74 87.3761 122.496 87.3423C124.252 87.3085 126.156 87.2095 127.874 87.6643Z" fill="#FF6584"/>
<path d="M89.1621 94.2724L88.863 98.4264L89.9423 97.5348L89.4026 93.8604L89.1621 94.2724Z" fill="#FF6584"/>
<path d="M48.6382 40.9277L45.1488 43.1432L47.2667 39.2976C46.6665 38.8178 45.9235 38.5524 45.1555 38.5434H45.0993C44.8569 38.5469 44.6146 38.5288 44.3754 38.4893L43.1927 39.2413L43.7009 38.3182C42.8625 38.0248 42.1384 37.4731 41.6324 36.7422L39.5145 38.0931L40.8522 35.6592C39.6134 34.171 37.9451 33.2591 36.1105 33.2591C33.9094 33.2591 31.9488 34.5695 30.683 36.6116C30.3081 37.2244 29.7776 37.7266 29.1457 38.0672C28.5137 38.4077 27.8029 38.5744 27.0857 38.5501H26.9665C24.5361 38.5501 22.5665 41.3082 22.5665 44.7125C22.5665 48.1167 24.5361 50.8748 26.9665 50.8748C27.5012 50.8723 28.0273 50.7402 28.4999 50.4898C29.3268 50.0873 30.2312 49.8695 31.1505 49.8516C32.0698 49.8337 32.982 50.0162 33.8239 50.3862C34.5362 50.7053 35.3077 50.8702 36.088 50.8702C36.8683 50.8702 37.6398 50.7053 38.3521 50.3862C39.188 50.0233 40.092 49.8448 41.0029 49.8626C41.9137 49.8805 42.8101 50.0944 43.6312 50.4898C44.0989 50.7349 44.6186 50.8639 45.1465 50.8658C47.577 50.8658 49.5465 48.1055 49.5465 44.7035C49.5659 43.3884 49.2534 42.0897 48.6382 40.9277Z" fill="#F2F2F2"/>
<path opacity="0.03" d="M42.0618 49.945C40.7923 49.7029 39.4795 49.8456 38.2914 50.3547C37.5781 50.6713 36.8063 50.834 36.0261 50.832C35.2459 50.8301 34.4749 50.6636 33.7632 50.3435C32.9211 49.9737 32.0089 49.7917 31.0896 49.81C30.1703 49.8282 29.2659 50.0464 28.4392 50.4493C27.9663 50.6987 27.4403 50.8301 26.9058 50.832C24.7474 50.832 22.951 48.6548 22.5778 45.7819C23.0091 45.4672 23.3755 45.072 23.657 44.6179C24.9205 42.5758 26.8833 41.2632 29.0844 41.2632C31.2856 41.2632 33.2214 42.5578 34.4804 44.5796C34.8589 45.1915 35.3892 45.6947 36.0196 46.0404C36.6501 46.386 37.3591 46.5622 38.0778 46.5519H38.134C39.8494 46.5519 41.3378 47.9321 42.0618 49.945Z" fill="black"/>
<path d="M110.91 53.9616L109.17 55.0581L110.227 53.1353C109.928 52.8956 109.557 52.7632 109.175 52.7593H109.157C109.036 52.7606 108.916 52.7516 108.797 52.7323L108.206 53.1061L108.46 52.6558C108.041 52.5098 107.68 52.2347 107.428 51.87L106.371 52.5454L107.045 51.3319C106.763 50.9655 106.402 50.6673 105.989 50.4593C105.576 50.2512 105.122 50.1385 104.66 50.1296C103.563 50.1296 102.585 50.7825 101.962 51.8024C101.774 52.1086 101.509 52.3594 101.193 52.5291C100.877 52.6988 100.522 52.7814 100.163 52.7683H100.105C98.8929 52.7683 97.9104 54.144 97.9104 55.8416C97.9104 57.5393 98.8929 58.9149 100.105 58.9149C100.371 58.9138 100.634 58.8481 100.869 58.7235C101.281 58.5217 101.732 58.4124 102.191 58.4035C102.65 58.3945 103.105 58.4861 103.524 58.6718C103.878 58.8301 104.261 58.9129 104.649 58.9149C105.036 58.9152 105.419 58.8339 105.773 58.6763C106.19 58.4952 106.641 58.4061 107.095 58.415C107.549 58.4239 107.996 58.5307 108.406 58.728C108.64 58.8502 108.899 58.9143 109.163 58.9149C110.375 58.9149 111.358 57.5393 111.358 55.8416C111.369 55.1873 111.215 54.5407 110.91 53.9616Z" fill="#F2F2F2"/>
<path opacity="0.03" d="M107.63 58.4601C106.997 58.3396 106.343 58.411 105.75 58.665C105.396 58.8211 105.013 58.9023 104.626 58.9037C104.235 58.9041 103.848 58.8212 103.491 58.6605C103.071 58.4764 102.616 58.3859 102.157 58.3952C101.699 58.4045 101.248 58.5135 100.835 58.7145C100.6 58.8394 100.338 58.9051 100.071 58.9059C98.9941 58.9059 98.0992 57.8184 97.9126 56.3865C98.1273 56.2292 98.3098 56.032 98.45 55.8056C99.0817 54.7857 100.06 54.1328 101.148 54.1328C102.236 54.1328 103.212 54.7789 103.846 55.7853C104.035 56.0912 104.3 56.3428 104.616 56.5156C104.931 56.6884 105.285 56.7765 105.645 56.7715H105.672C106.526 56.767 107.27 57.456 107.63 58.4601Z" fill="black"/>
<path d="M119.274 19.3358L122.069 21.1122L120.371 18.0209C120.852 17.6375 121.447 17.4252 122.062 17.4175H122.107C122.301 17.4193 122.495 17.405 122.687 17.3748L123.636 17.9759L123.222 17.2329C123.893 16.9987 124.473 16.5582 124.879 15.9743L126.577 17.0506L125.504 15.1008C126.496 13.9075 127.833 13.178 129.304 13.178C131.069 13.178 132.638 14.2272 133.652 15.864C133.952 16.3538 134.376 16.7554 134.881 17.0279C135.386 17.3003 135.954 17.434 136.528 17.4153H136.622C138.569 17.4153 140.148 19.624 140.148 22.3528C140.148 25.0816 138.574 27.2881 136.622 27.2881C136.194 27.2867 135.773 27.1816 135.395 26.9819C134.731 26.6581 134.006 26.4829 133.268 26.4685C132.53 26.4541 131.798 26.6009 131.123 26.8986C130.549 27.1546 129.928 27.2873 129.299 27.2881C128.68 27.2877 128.067 27.1573 127.501 26.9054C126.831 26.615 126.107 26.4721 125.377 26.4865C124.647 26.5009 123.929 26.6721 123.272 26.9887C122.896 27.1839 122.479 27.2865 122.055 27.2881C120.108 27.2881 118.53 25.0794 118.53 22.3528C118.522 21.3006 118.777 20.2632 119.274 19.3358Z" fill="#F2F2F2"/>
<path opacity="0.03" d="M124.535 26.5609C125.553 26.3668 126.605 26.4813 127.557 26.8896C128.127 27.1449 128.745 27.2768 129.37 27.2768C129.995 27.2768 130.613 27.1449 131.183 26.8896C131.859 26.5931 132.591 26.447 133.329 26.4614C134.066 26.4758 134.792 26.6503 135.455 26.9729C135.833 27.1743 136.255 27.2802 136.683 27.2814C138.412 27.2814 139.851 25.5365 140.152 23.2287C139.806 22.9764 139.512 22.659 139.286 22.2943C138.272 20.6597 136.701 19.6083 134.938 19.6083C133.175 19.6083 131.622 20.6462 130.608 22.265C130.305 22.7532 129.881 23.1547 129.378 23.4308C128.874 23.7069 128.308 23.8483 127.735 23.8411H127.69C126.309 23.8433 125.12 24.9488 124.535 26.5609Z" fill="black"/>
<path d="M72.8999 69.7851C72.783 69.6073 72.2097 69.7851 71.6206 70.1701C71.5172 70.2399 71.4183 70.312 71.3283 70.384C70.9184 70.1709 70.4763 70.0264 70.0198 69.9562L70.0445 69.9382C70.639 69.5481 71.19 69.0952 71.6881 68.5873H70.4222L72.2591 67.8804C72.484 67.5224 72.5559 67.2229 72.4323 67.0361C72.0995 66.5362 70.4942 67.018 68.8349 68.1168C68.0872 68.5941 67.4151 69.1807 66.8406 69.8572C65.4916 70.0148 64.5451 70.411 64.5451 70.8726C64.5451 71.1923 64.9948 71.4805 65.7255 71.6809L65.6828 71.7079C64.0325 72.8044 62.9623 74.1012 63.295 74.6011C63.5873 75.0514 64.8689 74.7181 66.3033 73.8828L65.3523 73.4325L66.8519 73.5361L66.8834 73.5158C67.043 73.41 67.1959 73.302 67.3443 73.1939L66.2201 72.6715L67.8681 72.7841C68.1801 72.5255 68.4718 72.2432 68.7405 71.9398C70.2761 71.8588 71.4767 71.4895 71.6858 71.0122C71.8135 70.9541 71.938 70.8895 72.059 70.8186C72.2705 70.681 72.4664 70.5209 72.6436 70.3412H72.1939L72.8482 70.0891C72.9202 69.9585 72.9449 69.8527 72.8999 69.7851Z" fill="#F2F2F2"/>
<path d="M29.2238 138.177C29.229 138.947 29.1537 139.716 28.9989 140.471C28.9674 140.613 28.936 140.752 28.9045 140.887C28.0659 144.253 25.7006 146.717 22.879 146.874C22.7845 146.874 22.6901 146.874 22.5912 146.874C19.6076 146.874 17.085 144.296 16.2509 140.746C16.2284 140.651 16.2082 140.556 16.1857 140.462C16.0272 139.707 15.948 138.939 15.9496 138.168C15.9496 133.358 18.9241 129.461 22.5912 129.461C26.2582 129.461 29.2238 133.367 29.2238 138.177Z" fill="#3F3D56"/>
<path opacity="0.1" d="M29.2238 138.177C29.229 138.947 29.1537 139.716 28.9989 140.471C28.9674 140.613 28.936 140.752 28.9045 140.887C28.8033 140.887 28.7066 140.887 28.6055 140.876C27.8746 140.835 27.1482 140.735 26.4336 140.577C25.7997 140.775 25.1518 140.925 24.4955 141.027C23.9927 141.103 23.486 141.15 22.9779 141.169C22.807 141.169 22.6361 141.169 22.4653 141.169C21.8569 141.169 21.2492 141.129 20.6464 141.047C19.672 140.918 18.7151 140.68 17.7932 140.338C17.2876 140.506 16.7726 140.644 16.2509 140.752C16.2284 140.658 16.2082 140.563 16.1857 140.469C16.0272 139.714 15.948 138.945 15.9496 138.174C15.9496 133.365 18.9241 129.468 22.5912 129.468C26.2582 129.468 29.2238 133.367 29.2238 138.177Z" fill="black"/>
<path d="M43.3928 121.957C43.3937 119.845 42.8985 117.763 41.9471 115.878L34.1342 118.312L40.9916 114.272C39.8421 112.608 38.3339 111.224 36.5784 110.221C34.823 109.219 32.8651 108.625 30.8493 108.482C30.5274 107.988 30.1737 107.515 29.7904 107.068L18.5622 110.564L27.7669 105.156C26.0079 103.803 23.943 102.905 21.7549 102.542C19.5668 102.179 17.3231 102.362 15.2223 103.074C13.1216 103.787 11.2287 105.007 9.71118 106.627C8.19369 108.247 7.09843 110.216 6.52238 112.361L16.134 123.438L5.69724 115.891C3.04617 117.762 1.15632 120.527 0.373336 123.679C-0.409644 126.83 -0.033421 130.159 1.43319 133.056C2.89981 135.953 5.3588 138.224 8.36042 139.455C11.362 140.685 14.7057 140.793 17.7798 139.757C20.5569 140.776 23.5907 140.856 26.4179 139.987C28.3903 140.421 30.4348 140.407 32.401 139.945C34.3672 139.484 36.2051 138.587 37.7796 137.321C39.3542 136.054 40.6252 134.451 41.4993 132.628C42.3734 130.805 42.8284 128.809 42.8307 126.786C42.8307 126.485 42.8195 126.187 42.7992 125.886C43.1896 124.613 43.3896 123.289 43.3928 121.957Z" fill="#57B894"/>
<path opacity="0.1" d="M43.159 124.465C39.034 123.683 34.8041 123.629 30.6605 124.305C25.9705 125.084 21.1771 126.793 16.5905 125.543C13.8925 124.809 11.5677 123.114 8.94613 122.166C6.40651 121.281 3.67102 121.12 1.04549 121.702C0.0440087 124.099 -0.247046 126.733 0.20712 129.291C0.661287 131.849 1.84146 134.222 3.60653 136.126C5.37159 138.029 7.64687 139.384 10.1603 140.027C12.6738 140.67 15.319 140.575 17.7798 139.753C20.5565 140.773 23.5902 140.855 26.4179 139.987C28.3903 140.421 30.4348 140.407 32.401 139.945C34.3672 139.484 36.2052 138.587 37.7797 137.321C39.3542 136.054 40.6252 134.451 41.4994 132.628C42.3735 130.805 42.8284 128.809 42.8307 126.786C42.8307 126.485 42.8195 126.187 42.7993 125.886C42.9459 125.419 43.0661 124.945 43.159 124.465Z" fill="black"/>
</g>
<defs>
<clipPath id="clip0">
<rect width="239" height="161" fill="white"/>
</clipPath>
</defs>
</svg>
