<svg width="92" height="58" viewBox="0 0 92 58" fill="none" xmlns="http://www.w3.org/2000/svg">
<path d="M91.1021 54.37C91.1021 55.9378 89.0793 57.2085 86.5905 57.2085H4.55575C2.06169 57.2085 0.0388794 55.9378 0.0388794 54.37V2.83586C0.0388794 1.26808 2.06169 0 4.55575 0H86.5894C89.0782 0 91.101 1.26808 91.101 2.83586V54.37H91.1021Z" fill="white"/>
<path d="M14.1551 33.1828C14.1551 32.1538 13.9517 31.3714 13.5405 30.8304C13.1332 30.2894 12.5588 30.0215 11.8224 30.0215H10.2818V36.3402H11.8224C12.5601 36.3402 13.1332 36.0696 13.5405 35.5351C13.9517 34.9915 14.1551 34.2091 14.1551 33.1828ZM14.5559 48.2805L12.1825 40.6397H10.2812V48.2805H5.48969V25.7213H12.1093C13.1642 25.7213 14.1194 25.8947 14.9671 26.2461C15.8174 26.5988 16.5388 27.1029 17.1424 27.7617C17.7375 28.4205 18.2044 29.2054 18.5321 30.127C18.8598 31.0459 19.0223 32.0762 19.0223 33.2138C19.0223 34.455 18.8216 35.5785 18.4227 36.5783C18.025 37.5717 17.4539 38.4097 16.7156 39.073L19.9581 48.2812H14.5559V48.2805Z" fill="#712878"/>
<path d="M50.4134 43.9563C50.2917 44.5265 50.0987 45.0487 49.8332 45.5198C49.5657 45.9903 49.2348 46.4258 48.8443 46.8206C48.4538 47.2147 48.0096 47.5577 47.5058 47.843C47.0019 48.1271 46.4405 48.3446 45.8233 48.5051C45.2017 48.6604 44.5307 48.7348 43.8132 48.7348C43.0925 48.7348 42.4209 48.6604 41.8031 48.5051C41.1821 48.3446 40.6213 48.1271 40.1168 47.843C39.6162 47.5577 39.1681 47.2147 38.7789 46.8206C38.3903 46.4277 38.0659 45.9903 37.8043 45.5198C37.5368 45.048 37.3399 44.5265 37.2195 43.9563C37.0958 43.3836 37.0284 42.7022 37.0284 41.9036V25.7213H41.9268V41.9366C41.9268 42.2207 41.9404 42.4511 41.9708 42.6142C41.9974 42.7895 42.0362 42.9481 42.0835 43.0846C42.2273 43.4561 42.4436 43.7434 42.7311 43.9518C43.0225 44.1544 43.38 44.2579 43.8132 44.2579C44.2439 44.2579 44.6072 44.1544 44.8986 43.9518C45.1919 43.7434 45.4121 43.4561 45.552 43.0846C45.6025 42.9481 45.6388 42.7915 45.6666 42.6142C45.6854 42.4511 45.699 42.2213 45.699 41.9366V25.7213H50.5941V41.9036C50.5941 42.7028 50.5371 43.3836 50.4134 43.9563Z" fill="#712878"/>
<path d="M33.5665 47.3414C33.1054 47.5977 32.5757 47.8268 31.9773 48.0313C31.3757 48.2371 30.7223 48.4027 30.0242 48.5367C29.3229 48.6668 28.6124 48.7392 27.8936 48.7392C27.1729 48.7392 26.5071 48.6583 25.8984 48.5056C25.2871 48.3451 24.7366 48.1238 24.236 47.841C23.7387 47.5576 23.2938 47.2152 22.9111 46.8211C22.5264 46.4244 22.2052 45.9908 21.9462 45.5204C21.6794 45.0486 21.478 44.5309 21.3549 43.9543C21.2312 43.3803 21.1691 42.7001 21.1691 41.908V32.0916C21.1691 31.2989 21.2306 30.6025 21.3614 30.002C21.4922 29.3989 21.7053 28.8326 22.007 28.302C22.2499 27.8684 22.5679 27.4574 22.948 27.086C23.3294 26.7119 23.7665 26.3922 24.273 26.1217C24.7729 25.8512 25.3363 25.6467 25.9489 25.4934C26.5635 25.3406 27.2311 25.2643 27.9526 25.2643C29.181 25.2643 30.2839 25.4008 31.265 25.6713C32.2428 25.9457 33.0776 26.2868 33.7685 26.6873V31.5486C33.3483 31.2846 32.906 31.0445 32.4462 30.8154C31.9812 30.5876 31.5195 30.3961 31.0636 30.2427C30.5992 30.0861 30.1563 29.9645 29.7282 29.8739C29.2995 29.7826 28.9162 29.7412 28.5691 29.7412C28.0788 29.7412 27.6709 29.8091 27.3464 29.9399C27.0207 30.0738 26.7629 30.2621 26.5751 30.5178C26.3893 30.7682 26.2559 31.0704 26.1795 31.4328C26.1011 31.7946 26.0655 32.2036 26.0655 32.6676V41.9359C26.0655 42.2193 26.0758 42.4503 26.1095 42.6134C26.1387 42.7888 26.173 42.9435 26.2222 43.0826C26.3692 43.4541 26.5758 43.7433 26.8562 43.9498C27.134 44.1543 27.518 44.2597 28.0121 44.2597C28.1883 44.2597 28.3767 44.241 28.5639 44.2119C28.7517 44.1853 28.9207 44.1523 29.0742 44.107C29.227 44.0714 29.3637 44.0287 29.4789 43.9854C29.5961 43.9414 29.6726 43.898 29.7263 43.8592V38.9539H28.1695V34.4187H34.6169V46.5894C34.3779 46.8367 34.0263 47.0871 33.5665 47.3414Z" fill="#712878"/>
<path d="M48.4526 17.1563C37.2979 13.0056 26.2054 23.0271 19.9587 23.0271C11.9727 23.0271 5.3783 17.8792 5.3783 17.8792L22.6916 9.81905C26.5143 8.03683 31.6328 7.97018 36.5331 9.81905C41.4315 11.6608 48.4526 17.1563 48.4526 17.1563Z" fill="#712878"/>
<path d="M50.5942 22.2719C44.8662 19.2802 40.9969 25.2041 36.0992 22.6589L32.3063 20.3849C32.3063 20.3849 43.4137 14.7942 48.1884 19.7565C50.6013 22.2654 50.5942 22.2719 50.5942 22.2719Z" fill="#712878"/>
<path d="M18.8371 10.4642C15.2151 9.61127 12.1468 13.1589 10.2112 13.4003C7.72963 13.7122 5.48639 12.3765 5.48639 12.3765L10.5609 9.19387C11.6825 8.49107 13.2691 8.26587 14.8615 8.65027C16.4533 9.0282 18.8371 10.4642 18.8371 10.4642Z" fill="#712878"/>
<path opacity="0.3" d="M64.3781 33.8163H67.397V23.7166C64.874 24.0372 62.5989 25.1594 60.8342 26.8208C62.7892 28.6732 64.0416 31.1452 64.3781 33.8163ZM80.4205 33.8163C80.2027 32.1346 79.6257 30.5193 78.7287 29.0798C77.4599 30.3477 76.5849 31.98 76.2786 33.8163H80.4205ZM58.9821 29.0798C58.0851 30.5193 57.5081 32.1346 57.2903 33.8163H61.4322C61.1315 32.0202 60.2745 30.3636 58.9821 29.0798ZM57.2903 36.731C57.5081 38.4128 58.0851 40.0281 58.9821 41.4675C60.2509 40.1996 61.1259 38.5673 61.4322 36.731H57.2903ZM60.8488 43.7119C62.6438 45.4214 64.9378 46.514 67.397 46.8307V36.731H64.3781C64.0467 39.3964 62.7992 41.8639 60.8488 43.7119ZM76.8766 26.8208C75.0768 25.1123 72.777 24.0245 70.3138 23.7166V33.8163H73.3327C73.6692 31.1452 74.9216 28.6732 76.8766 26.8208ZM78.7287 41.4675C79.6404 40.0352 80.2185 38.4165 80.4205 36.731H76.2786C76.5849 38.5673 77.4599 40.1996 78.7287 41.4675ZM70.3138 36.731V46.8307C72.8368 46.5101 75.1119 45.3733 76.862 43.7119C74.9116 41.8639 73.6641 39.3964 73.3327 36.731H70.3138Z" fill="#D9C6DB"/>
<path d="M68.8554 20.6998C60.8051 20.6998 54.2715 27.2289 54.2715 35.2737C54.2715 43.3184 60.8051 49.8475 68.8554 49.8475C76.9058 49.8475 83.4394 43.3184 83.4394 35.2737C83.4394 27.2289 76.9058 20.6998 68.8554 20.6998ZM58.9821 29.0798C60.2509 30.3477 61.1259 31.98 61.4322 33.8163H57.2904C57.5082 32.1346 58.0851 30.5193 58.9821 29.0798ZM57.2904 36.731H61.4322C61.1315 38.5271 60.2746 40.1837 58.9821 41.4675C58.0851 40.0281 57.5082 38.4128 57.2904 36.731ZM67.397 46.8307C64.874 46.5101 62.5989 45.3733 60.8488 43.7119C62.7992 41.8639 64.0468 39.3964 64.3782 36.731H67.397V46.8307ZM67.397 33.8163H64.3782C64.0416 31.1452 62.7893 28.6732 60.8343 26.8208C62.6378 25.1178 64.9357 24.0309 67.397 23.7166V33.8163ZM80.4205 33.8163H76.2787C76.5849 31.98 77.46 30.3477 78.7288 29.0798C79.6038 30.4934 80.2017 32.0966 80.4205 33.8163ZM70.3138 23.7166C72.8369 24.0372 75.1119 25.1594 76.8766 26.8208C74.9216 28.6732 73.6693 31.1452 73.3327 33.8163H70.3138V23.7166ZM70.3138 46.8307V36.731H73.3327C73.6704 39.3945 74.9169 41.86 76.862 43.7119C75.0671 45.4214 72.7731 46.514 70.3138 46.8307ZM78.7288 41.4675C77.4389 40.1819 76.5824 38.5261 76.2787 36.731H80.4205C80.2027 38.4128 79.6258 40.0281 78.7288 41.4675Z" fill="#712878"/>
</svg>
